<?xml version="1.0" encoding="UTF-8" standalone="no"?>
<svg
   xmlns:dc="http://purl.org/dc/elements/1.1/"
   xmlns:cc="http://creativecommons.org/ns#"
   xmlns:rdf="http://www.w3.org/1999/02/22-rdf-syntax-ns#"
   xmlns:svg="http://www.w3.org/2000/svg"
   xmlns="http://www.w3.org/2000/svg"
   viewBox="0 0 288 288"
   id="svg30"
   height="288"
   width="288"
   version="1.1">
  <metadata
     id="metadata36">
    <rdf:RDF>
      <cc:Work
         rdf:about="">
        <dc:format>image/svg+xml</dc:format>
        <dc:type
           rdf:resource="http://purl.org/dc/dcmitype/StillImage" />
      </cc:Work>
    </rdf:RDF>
  </metadata>
  <defs
     id="defs34" />
  <path
     id="path2"
     style="fill:#ffffff;fill-rule:evenodd"
     d="M 0.3325,287.3324 H 287.3324 V 0.3325 H 0.3325 Z" />
  <path
     id="path4"
     style="fill:#234a58;fill-rule:evenodd"
     d="m 155.9078,66.856 c 0.3608,-1.573 0.803,-2.9532 0.9669,-4.3611 0.163,-1.4069 0.0479,-2.842 0.0541,-4.2571 17.3619,3.8911 34.4789,19.5922 36.6469,43.2181 2.0049,21.8509 -11.399,43.488 -31.968,51.4951 -21.149,8.2318 -40.631,0.4918 -50.006,-8.4311 2.643,-1.304 4.7271,-3.2349 6.4069,-5.7201 11.4732,8.7951 24.1891,11.289 38.133,6.899 10.6291,-3.3469 18.603,-10.1699 23.9792,-20.0018 4.0529,-7.4121 5.5989,-15.3652 4.8058,-23.6982 -0.7948,-8.3619 -3.797,-15.8029 -9.123,-22.2168 -5.294,-6.3791 -12.0158,-10.594 -19.8958,-12.926 z" />
  <path
     id="path6"
     style="fill:#007e7c;fill-rule:evenodd"
     d="m 169.1529,89.9813 c -3.143,0.2032 -5.879,1.226 -8.3831,3.0231 -4.7611,-5.451 -10.698,-8.145 -17.9601,-7.543 -5.5879,0.4641 -10.33,2.884 -14.1329,7.1119 -7.6411,8.496 -7.308,21.6782 0.788,29.4361 4.6891,4.494 10.3609,6.4131 16.8789,5.637 6.478,-0.7719 11.5412,-4.0629 15.2912,-9.3201 1.4839,0.546 2.8278,1.1801 4.246,1.5222 1.3879,0.3348 2.852,0.3708 4.263,0.5369 -3.8681,8.3999 -15.0542,17.2301 -29.169,15.967 -13.402,-1.1999 -24.8412,-11.6399 -26.2602,-26.4019 -1.311,-13.6321 6.806,-26.4671 19.4621,-31.2582 14.0559,-5.3209 28.2561,0.614 34.9761,11.289 z" />
  <path
     id="path8"
     style="fill:#234a58;fill-rule:evenodd"
     d="m 126.7968,60.4018 c 0.1622,1.4289 0.205,2.899 0.523,4.301 0.3121,1.3719 0.904,2.6739 1.3241,3.8661 -19.2249,10.0449 -27.436,25.7009 -24.6691,47.223 -2.723,0.318 -5.3898,1.3388 -7.8928,3.2539 -2.5591,-11.537 -1.474,-22.5859 3.5629,-33.2391 6.3961,-13.5289 17.7341,-22.0479 27.1519,-25.4049 z" />
  <path
     id="path10"
     style="fill:#6d151a;fill-rule:evenodd"
     d="m 150.6586,97.2833 c 5.032,3.4708 6.2572,10.4378 2.7411,15.5968 -3.509,5.15 -10.5829,6.5112 -15.626,3.0062 -5.0071,-3.481 -6.2079,-10.516 -2.668,-15.6192 3.5521,-5.118 10.52,-6.4548 15.5529,-2.9838 z" />
  <path
     id="path12"
     style="fill:#6d151a;fill-rule:evenodd"
     d="m 174.4078,98.3863 c 3.6578,2.66 4.4479,7.7828 1.7688,11.4778 -2.692,3.7111 -7.8508,4.5972 -11.4429,1.9641 -3.6031,-2.6399 -4.3849,-7.744 -1.7481,-11.414 2.6912,-3.744 7.8112,-4.6539 11.4222,-2.0279 z" />
  <path
     id="path14"
     style="fill:#6d151a;fill-rule:evenodd"
     d="m 137.5177,67.9833 c -3.7822,-2.234 -4.909,-7.3559 -2.3422,-11.414 2.3201,-3.668 7.1472,-4.985 11.186,-2.5869 3.7721,2.2391 4.9391,7.418 2.4021,11.427 -2.393,3.782 -7.3871,5.0349 -11.2459,2.5739 z" />
  <path
     id="path16"
     style="fill:#6d151a;fill-rule:evenodd"
     d="m 112.1817,135.1069 c -2.1921,3.829 -7.1791,5.104 -11.187,2.859 -3.8211,-2.1399 -4.9991,-7.274 -2.6101,-11.3811 2.0571,-3.5368 7.168,-4.9578 10.643,-3.115 4.4651,2.3681 5.6111,7.8392 3.1541,11.6371 z" />
  <path
     id="path18"
     style="fill:#234a58;fill-rule:evenodd"
     d="m 90.9377,233.6409 -0.1562,1.1341 H 85.648 l 1.3674,-9.5505 h 1.3184 l -1.2438,8.4164 z m 12.6675,-4.6083 c 0,0.9076 -0.182,1.8153 -0.546,2.7255 -0.3662,0.9076 -0.8983,1.6588 -1.5959,2.2515 -0.7002,0.5928 -1.5307,0.889 -2.4922,0.889 -1.0451,0 -1.876,-0.343 -2.492,-1.029 -0.6182,-0.686 -0.9263,-1.6892 -0.9263,-3.0124 0,-0.8889 0.1891,-1.7779 0.5669,-2.6694 0.3782,-0.8912 0.917,-1.6285 1.6172,-2.2118 0.6999,-0.5834 1.512,-0.8751 2.4361,-0.8751 0.665,0 1.2574,0.1565 1.7756,0.4691 0.5156,0.3127 0.9215,0.7654 1.2155,1.3578 0.2942,0.5928 0.4411,1.2929 0.4411,2.1048 z m -4.5944,4.7647 c 0.7211,0 1.3232,-0.2613 1.8085,-0.7863 0.4853,-0.5227 0.8421,-1.1645 1.0709,-1.9205 0.2262,-0.756 0.3407,-1.4697 0.3407,-2.1396 0,-0.784 -0.1632,-1.4371 -0.4878,-1.9576 -0.3266,-0.5227 -0.8538,-0.784 -1.5843,-0.784 -0.7047,0 -1.3042,0.2613 -1.7943,0.784 -0.4899,0.5205 -0.8564,1.1619 -1.099,1.9228 -0.2449,0.7605 -0.3663,1.4862 -0.3663,2.1744 0,0.8612 0.1727,1.5285 0.5202,1.9999 0.3455,0.4714 0.8773,0.7069 1.5914,0.7069 z m 17.276,-4.7647 c 0,0.9076 -0.182,1.8153 -0.5459,2.7255 -0.3663,0.9076 -0.8983,1.6588 -1.596,2.2515 -0.7001,0.5928 -1.5307,0.889 -2.4922,0.889 -1.0451,0 -1.8759,-0.343 -2.4919,-1.029 -0.6182,-0.686 -0.9264,-1.6892 -0.9264,-3.0124 0,-0.8889 0.1891,-1.7779 0.567,-2.6694 0.3781,-0.8912 0.917,-1.6285 1.6171,-2.2118 0.6999,-0.5834 1.512,-0.8751 2.4361,-0.8751 0.665,0 1.2575,0.1565 1.7756,0.4691 0.5157,0.3127 0.9216,0.7654 1.2155,1.3578 0.2943,0.5928 0.4411,1.2929 0.4411,2.1048 z m -4.5944,4.7647 c 0.7211,0 1.3232,-0.2613 1.8085,-0.7863 0.4853,-0.5227 0.8422,-1.1645 1.0709,-1.9205 0.2262,-0.756 0.3408,-1.4697 0.3408,-2.1396 0,-0.784 -0.1633,-1.4371 -0.4879,-1.9576 -0.3265,-0.5227 -0.8538,-0.784 -1.5843,-0.784 -0.7047,0 -1.3042,0.2613 -1.7943,0.784 -0.4898,0.5205 -0.8563,1.1619 -1.099,1.9228 -0.2449,0.7605 -0.3662,1.4862 -0.3662,2.1744 0,0.8612 0.1726,1.5285 0.5201,1.9999 0.3456,0.4714 0.8774,0.7069 1.5914,0.7069 z m 15.2181,-8.5728 h 1.5517 l -4.326,4.3146 3.9782,5.2359 h -1.512 l -3.9223,-5.2081 -0.7257,5.2081 h -1.2577 l 1.3535,-9.5505 h 1.2645 l -0.6205,4.2585 z m 18.4099,2.3241 c 0,0.917 -0.4434,1.5798 -1.3323,1.9905 0.5973,0.2052 1.0732,0.5224 1.4281,0.9542 0.3546,0.4294 0.5318,0.9473 0.5318,1.5539 0,1.0245 -0.3734,1.7362 -1.12,2.1328 -0.7466,0.3966 -1.5797,0.595 -2.4942,0.595 h -2.8094 l 1.3532,-9.5505 h 1.5027 c 0.9218,0 1.6404,0.2126 2.1608,0.6324 0.5202,0.4224 0.7793,0.987 0.7793,1.6917 z m -3.3228,1.4981 c 0.5695,0 1.0432,-0.1097 1.421,-0.3291 0.3804,-0.2194 0.5695,-0.5995 0.5695,-1.1409 0,-0.4456 -0.1471,-0.7702 -0.4411,-0.9706 -0.2939,-0.2007 -0.6789,-0.301 -1.1525,-0.301 h -0.4108 l -0.3756,2.7416 z m 0.3688,4.6619 c 0.735,0 1.2974,-0.1423 1.6894,-0.4269 0.3918,-0.2846 0.5879,-0.6883 0.5879,-1.2064 0,-0.5692 -0.2171,-1.0429 -0.6485,-1.4162 -0.434,-0.3733 -1.0383,-0.5601 -1.8131,-0.5601 h -0.7304 l -0.5134,3.6096 z m 10.5769,-7.3477 -0.4175,2.9937 h 3.3015 l -0.1494,1.1341 h -3.3225 l -0.4575,3.1522 h 4.9561 l -0.1726,1.1341 h -6.2674 l 1.3813,-9.5505 h 5.0587 l -0.1588,1.1364 z m 13.8016,-1.1364 h 1.4559 l -3.3296,4.7928 -0.6837,4.7577 h -1.2787 l 0.6908,-4.7577 -2.2564,-4.7928 h 1.3278 l 1.6401,3.5561 z m 12.8846,3.8081 c 0,0.9076 -0.182,1.8153 -0.5459,2.7255 -0.3663,0.9076 -0.8983,1.6588 -1.5959,2.2515 -0.7002,0.5928 -1.5308,0.889 -2.4923,0.889 -1.0451,0 -1.8759,-0.343 -2.4919,-1.029 -0.6182,-0.686 -0.9264,-1.6892 -0.9264,-3.0124 0,-0.8889 0.1891,-1.7779 0.567,-2.6694 0.3781,-0.8912 0.917,-1.6285 1.6171,-2.2118 0.6999,-0.5834 1.512,-0.8751 2.4361,-0.8751 0.665,0 1.2575,0.1565 1.7756,0.4691 0.5157,0.3127 0.9216,0.7654 1.2155,1.3578 0.2943,0.5928 0.4411,1.2929 0.4411,2.1048 z m -4.5944,4.7647 c 0.7212,0 1.3232,-0.2613 1.8085,-0.7863 0.4853,-0.5227 0.8422,-1.1645 1.071,-1.9205 0.2262,-0.756 0.3407,-1.4697 0.3407,-2.1396 0,-0.784 -0.1633,-1.4371 -0.4879,-1.9576 -0.3265,-0.5227 -0.8538,-0.784 -1.5843,-0.784 -0.7046,0 -1.3042,0.2613 -1.7943,0.784 -0.4898,0.5205 -0.8563,1.1619 -1.099,1.9228 -0.2449,0.7605 -0.3662,1.4862 -0.3662,2.1744 0,0.8612 0.1726,1.5285 0.5201,1.9999 0.3456,0.4714 0.8774,0.7069 1.5914,0.7069 z m 15.7385,-1.5446 0.9916,-7.0282 h 1.2297 l -1.3533,9.5505 h -0.6766 l -4.6902,-6.9721 -0.9916,6.9721 h -1.2297 l 1.3533,-9.5505 h 0.6301 z m 14.5318,-2.2354 c 0,0.7328 -0.1213,1.4071 -0.3662,2.0206 -0.2426,0.6114 -0.6021,1.1318 -1.0757,1.561 -0.4969,0.4459 -1.0758,0.7537 -1.7408,0.9241 -0.6624,0.1681 -1.4255,0.252 -2.2935,0.252 h -2.6181 l 1.3604,-9.5505 h 1.2858 c 1.0357,0 1.9647,0.1752 2.7858,0.5275 0.8238,0.3501 1.4724,0.8844 1.9483,1.603 0.4762,0.7163 0.714,1.6053 0.714,2.6623 z m -1.3461,0 c 0,-0.7653 -0.161,-1.421 -0.483,-1.9692 -0.3198,-0.5462 -0.7725,-0.9615 -1.3559,-1.2461 -0.5833,-0.2872 -1.2577,-0.4295 -2.0228,-0.4295 h -0.4107 l -1.0315,7.2545 h 1.2438 c 1.3626,0 2.38,-0.3243 3.0521,-0.9754 0.6718,-0.6486 1.008,-1.5259 1.008,-2.6343 z" />
  <path
     id="path20"
     style="fill:#13160f;fill-rule:evenodd"
     d="m 77.5463,169.0574 v 6.9959 h -0.756 c -0.8221,-4.2539 -2.9401,-6.3779 -6.3661,-6.3779 -1.836,0 -3.1799,0.72 -4.026,2.16 -0.8399,1.44 -1.266,4.4759 -1.266,9.108 0,3.81 0.186,6.3961 0.546,7.77 0.3659,1.368 0.9961,2.3519 1.8901,2.9398 0.9,0.5942 1.8839,0.8881 2.9639,0.8881 1.404,0 2.7241,-0.5281 3.96,-1.5899 1.2359,-1.0559 2.196,-2.7601 2.8741,-5.1061 h 0.828 l -0.2821,7.1881 h -0.72 c -0.2698,-0.75 -0.6899,-1.3802 -1.2659,-1.8961 -1.8479,1.5361 -3.7559,2.304 -5.7121,2.304 -2.484,0 -4.752,-1.1761 -6.804,-3.5339 -2.052,-2.3582 -3.0719,-5.2382 -3.0719,-8.6519 0,-3.4801 1.008,-6.4262 3.024,-8.8501 2.01,-2.4179 4.3441,-3.63 6.9899,-3.63 2.0401,0 3.8401,0.7378 5.4,2.2019 0.4561,-0.7259 0.8039,-1.368 1.0381,-1.9199 z m 12.1799,1.1639 v 10.1041 h 2.124 c 0.75,0 1.3861,-0.072 1.908,-0.216 0.5221,-0.1499 0.9901,-0.5459 1.404,-1.188 0.4201,-0.648 0.6539,-1.656 0.714,-3.024 h 0.9119 v 9.9839 h -0.9119 c -0.0961,-1.8961 -0.462,-3.1498 -1.0981,-3.7499 -0.6418,-0.6061 -1.6138,-0.906 -2.9279,-0.906 h -2.124 v 10.7759 h 4.7939 c 2.7241,0 4.6021,-0.576 5.652,-1.7161 1.05,-1.1457 1.6742,-2.9038 1.872,-5.2798 h 0.9 l -0.2279,7.89 H 81.8121 v -0.8941 h 3.744 v -21.78 h -3.744 v -0.9 h 20.0401 l 0.402,6.2941 h -0.8941 c -0.3058,-1.908 -0.93,-3.2879 -1.8779,-4.1281 -0.9539,-0.8459 -2.5319,-1.266 -4.7461,-1.266 z m 24.9539,11.88 v 9.9 h 3.816 v 0.8941 h -11.7419 v -0.8941 h 3.744 v -21.78 h -3.744 v -0.9 h 12.1439 c 2.7419,0 4.8121,0.612 6.1979,1.8301 1.3921,1.218 2.0821,2.7178 2.0821,4.5 0,1.83 -0.6959,3.3599 -2.0999,4.5961 -1.3981,1.2359 -3.7262,1.8538 -6.984,1.8538 z m 0,-11.88 v 10.9681 h 2.268 c 1.1821,0 2.1719,-0.102 2.952,-0.3002 0.7861,-0.1978 1.4641,-0.7259 2.0342,-1.584 0.5638,-0.8518 0.8518,-2.1778 0.8518,-3.9719 0,-1.578 -0.252,-2.7419 -0.7501,-3.486 -0.4977,-0.7438 -1.0859,-1.1999 -1.764,-1.374 -0.6777,-0.1681 -1.5239,-0.252 -2.5319,-0.252 z m 19.2901,21.78 v -21.78 h -3.714 v -0.9 h 11.6399 v 0.9 h -3.744 v 10.0681 h 10.1761 v -10.0681 h -3.672 v -0.9 h 11.5679 v 0.9 h -3.7139 v 21.78 h 3.7139 v 0.8941 h -11.5679 v -0.8941 h 3.672 v -10.8119 h -10.1761 v 10.8119 h 3.744 v 0.8941 h -11.6399 v -0.8941 z m 33.768,-21.78 v 10.1041 h 2.124 c 0.75,0 1.3861,-0.072 1.908,-0.216 0.5221,-0.1499 0.9901,-0.5459 1.404,-1.188 0.4201,-0.648 0.6539,-1.656 0.714,-3.024 h 0.9119 v 9.9839 h -0.9119 c -0.0961,-1.8961 -0.462,-3.1498 -1.0981,-3.7499 -0.6418,-0.6061 -1.6138,-0.906 -2.9279,-0.906 h -2.124 v 10.7759 h 4.7939 c 2.7241,0 4.6021,-0.576 5.652,-1.7161 1.05,-1.1457 1.6742,-2.9038 1.872,-5.2798 h 0.9 l -0.2279,7.89 h -20.9041 v -0.8941 h 3.744 v -21.78 h -3.744 v -0.9 h 20.0401 l 0.402,6.2941 h -0.8941 c -0.3058,-1.908 -0.93,-3.2879 -1.8779,-4.1281 -0.9539,-0.8459 -2.5319,-1.266 -4.7461,-1.266 z m 36.8039,0 h -3.852 v -0.9 h 8.424 v 0.9 h -3.714 v 14.256 c 0,2.058 -0.1499,3.5822 -0.462,4.5661 -0.3118,0.9839 -0.8759,1.8119 -1.698,2.478 -0.822,0.6718 -1.8,1.158 -2.946,1.4641 -1.1398,0.2999 -2.3219,0.4558 -3.5399,0.4558 -2.5801,0 -4.464,-0.4079 -5.658,-1.2121 -1.2002,-0.8098 -1.9321,-1.8059 -2.2082,-2.988 -0.2758,-1.188 -0.4138,-2.772 -0.4138,-4.7639 v -14.256 h -3.4081 v -0.9 h 11.268 v 0.9 h -3.708 v 13.8481 c 0,1.914 0.0842,3.4141 0.2579,4.5 0.18,1.0919 0.6543,1.9979 1.4281,2.7238 0.7742,0.7322 1.9982,1.0922 3.672,1.0922 1.3621,0 2.5801,-0.2761 3.6542,-0.8339 1.08,-0.5582 1.836,-1.3023 2.2617,-2.2442 0.4261,-0.936 0.6421,-2.6819 0.6421,-5.2379 z m 22.026,-1.1639 0.108,6.12 h -0.828 c -1.1698,-3.666 -3.24,-5.502 -6.2039,-5.502 -1.6441,0 -2.916,0.4561 -3.8219,1.362 -0.9122,0.906 -1.3621,1.8479 -1.3621,2.8199 0,0.9 0.3779,1.6679 1.1339,2.304 0.756,0.6302 2.1362,1.122 4.14,1.4701 2.0041,0.3418 3.528,0.7619 4.5782,1.26 1.05,0.498 1.9318,1.332 2.6518,2.4899 0.72,1.158 1.08,2.49 1.08,3.9901 0,2.3099 -0.75,4.2298 -2.2558,5.7659 -1.506,1.5361 -3.3721,2.304 -5.5981,2.304 -1.8179,0 -3.6301,-0.6721 -5.436,-2.0219 l -1.6501,1.476 h -0.6179 v -6.594 h 0.756 c 0.6959,2.0758 1.6619,3.636 2.9041,4.68 1.2418,1.0381 2.5979,1.5599 4.0799,1.5599 1.4641,0 2.808,-0.4799 4.032,-1.4459 1.224,-0.9661 1.836,-2.1901 1.836,-3.6661 0,-1.2418 -0.4261,-2.2858 -1.2719,-3.1379 -0.8521,-0.8521 -2.2261,-1.4341 -4.1341,-1.7581 -1.902,-0.324 -3.3661,-0.6959 -4.386,-1.1279 -1.0199,-0.426 -1.8899,-1.1701 -2.6161,-2.232 -0.726,-1.0562 -1.0919,-2.232 -1.0919,-3.522 0,-1.7822 0.6361,-3.3721 1.902,-4.7702 1.26,-1.404 2.9821,-2.1058 5.148,-2.1058 1.8179,0 3.5099,0.576 5.082,1.728 0.432,-0.4142 0.8039,-0.8941 1.1219,-1.446 z" />
  <path
     id="path22"
     style="fill:#234a58;fill-rule:evenodd"
     d="m 77.5463,169.0574 v 6.9959 h -0.756 c -0.8221,-4.2539 -2.9401,-6.3779 -6.3661,-6.3779 -1.836,0 -3.1799,0.72 -4.026,2.16 -0.8399,1.44 -1.266,4.4759 -1.266,9.108 0,3.81 0.186,6.3961 0.546,7.77 0.3659,1.368 0.9961,2.3519 1.8901,2.9398 0.9,0.5942 1.8839,0.8881 2.9639,0.8881 1.404,0 2.7241,-0.5281 3.96,-1.5899 1.2359,-1.0559 2.196,-2.7601 2.8741,-5.1061 h 0.828 l -0.2821,7.1881 h -0.72 c -0.2698,-0.75 -0.6899,-1.3802 -1.2659,-1.8961 -1.8479,1.5361 -3.7559,2.304 -5.7121,2.304 -2.484,0 -4.752,-1.1761 -6.804,-3.5339 -2.052,-2.3582 -3.0719,-5.2382 -3.0719,-8.6519 0,-3.4801 1.008,-6.4262 3.024,-8.8501 2.01,-2.4179 4.3441,-3.63 6.9899,-3.63 2.0401,0 3.8401,0.7378 5.4,2.2019 0.4561,-0.7259 0.8039,-1.368 1.0381,-1.9199 z m 12.1799,1.1639 v 10.1041 h 2.124 c 0.75,0 1.3861,-0.072 1.908,-0.216 0.5221,-0.1499 0.9901,-0.5459 1.404,-1.188 0.4201,-0.648 0.6539,-1.656 0.714,-3.024 h 0.9119 v 9.9839 h -0.9119 c -0.0961,-1.8961 -0.462,-3.1498 -1.0981,-3.7499 -0.6418,-0.6061 -1.6138,-0.906 -2.9279,-0.906 h -2.124 v 10.7759 h 4.7939 c 2.7241,0 4.6021,-0.576 5.652,-1.7161 1.05,-1.1457 1.6742,-2.9038 1.872,-5.2798 h 0.9 l -0.2279,7.89 H 81.8121 v -0.8941 h 3.744 v -21.78 h -3.744 v -0.9 h 20.0401 l 0.402,6.2941 h -0.8941 c -0.3058,-1.908 -0.93,-3.2879 -1.8779,-4.1281 -0.9539,-0.8459 -2.5319,-1.266 -4.7461,-1.266 z m 24.9539,11.88 v 9.9 h 3.816 v 0.8941 h -11.7419 v -0.8941 h 3.744 v -21.78 h -3.744 v -0.9 h 12.1439 c 2.7419,0 4.8121,0.612 6.1979,1.8301 1.3921,1.218 2.0821,2.7178 2.0821,4.5 0,1.83 -0.6959,3.3599 -2.0999,4.5961 -1.3981,1.2359 -3.7262,1.8538 -6.984,1.8538 z m 0,-11.88 v 10.9681 h 2.268 c 1.1821,0 2.1719,-0.102 2.952,-0.3002 0.7861,-0.1978 1.4641,-0.7259 2.0342,-1.584 0.5638,-0.8518 0.8518,-2.1778 0.8518,-3.9719 0,-1.578 -0.252,-2.7419 -0.7501,-3.486 -0.4977,-0.7438 -1.0859,-1.1999 -1.764,-1.374 -0.6777,-0.1681 -1.5239,-0.252 -2.5319,-0.252 z m 19.2901,21.78 v -21.78 h -3.714 v -0.9 h 11.6399 v 0.9 h -3.744 v 10.0681 h 10.1761 v -10.0681 h -3.672 v -0.9 h 11.5679 v 0.9 h -3.7139 v 21.78 h 3.7139 v 0.8941 h -11.5679 v -0.8941 h 3.672 v -10.8119 h -10.1761 v 10.8119 h 3.744 v 0.8941 h -11.6399 v -0.8941 z m 33.768,-21.78 v 10.1041 h 2.124 c 0.75,0 1.3861,-0.072 1.908,-0.216 0.5221,-0.1499 0.9901,-0.5459 1.404,-1.188 0.4201,-0.648 0.6539,-1.656 0.714,-3.024 h 0.9119 v 9.9839 h -0.9119 c -0.0961,-1.8961 -0.462,-3.1498 -1.0981,-3.7499 -0.6418,-0.6061 -1.6138,-0.906 -2.9279,-0.906 h -2.124 v 10.7759 h 4.7939 c 2.7241,0 4.6021,-0.576 5.652,-1.7161 1.05,-1.1457 1.6742,-2.9038 1.872,-5.2798 h 0.9 l -0.2279,7.89 h -20.9041 v -0.8941 h 3.744 v -21.78 h -3.744 v -0.9 h 20.0401 l 0.402,6.2941 h -0.8941 c -0.3058,-1.908 -0.93,-3.2879 -1.8779,-4.1281 -0.9539,-0.8459 -2.5319,-1.266 -4.7461,-1.266 z m 36.8039,0 h -3.852 v -0.9 h 8.424 v 0.9 h -3.714 v 14.256 c 0,2.058 -0.1499,3.5822 -0.462,4.5661 -0.3118,0.9839 -0.8759,1.8119 -1.698,2.478 -0.822,0.6718 -1.8,1.158 -2.946,1.4641 -1.1398,0.2999 -2.3219,0.4558 -3.5399,0.4558 -2.5801,0 -4.464,-0.4079 -5.658,-1.2121 -1.2002,-0.8098 -1.9321,-1.8059 -2.2082,-2.988 -0.2758,-1.188 -0.4138,-2.772 -0.4138,-4.7639 v -14.256 h -3.4081 v -0.9 h 11.268 v 0.9 h -3.708 v 13.8481 c 0,1.914 0.0842,3.4141 0.2579,4.5 0.18,1.0919 0.6543,1.9979 1.4281,2.7238 0.7742,0.7322 1.9982,1.0922 3.672,1.0922 1.3621,0 2.5801,-0.2761 3.6542,-0.8339 1.08,-0.5582 1.836,-1.3023 2.2617,-2.2442 0.4261,-0.936 0.6421,-2.6819 0.6421,-5.2379 z m 22.026,-1.1639 0.108,6.12 h -0.828 c -1.1698,-3.666 -3.24,-5.502 -6.2039,-5.502 -1.6441,0 -2.916,0.4561 -3.8219,1.362 -0.9122,0.906 -1.3621,1.8479 -1.3621,2.8199 0,0.9 0.3779,1.6679 1.1339,2.304 0.756,0.6302 2.1362,1.122 4.14,1.4701 2.0041,0.3418 3.528,0.7619 4.5782,1.26 1.05,0.498 1.9318,1.332 2.6518,2.4899 0.72,1.158 1.08,2.49 1.08,3.9901 0,2.3099 -0.75,4.2298 -2.2558,5.7659 -1.506,1.5361 -3.3721,2.304 -5.5981,2.304 -1.8179,0 -3.6301,-0.6721 -5.436,-2.0219 l -1.6501,1.476 h -0.6179 v -6.594 h 0.756 c 0.6959,2.0758 1.6619,3.636 2.9041,4.68 1.2418,1.0381 2.5979,1.5599 4.0799,1.5599 1.4641,0 2.808,-0.4799 4.032,-1.4459 1.224,-0.9661 1.836,-2.1901 1.836,-3.6661 0,-1.2418 -0.4261,-2.2858 -1.2719,-3.1379 -0.8521,-0.8521 -2.2261,-1.4341 -4.1341,-1.7581 -1.902,-0.324 -3.3661,-0.6959 -4.386,-1.1279 -1.0199,-0.426 -1.8899,-1.1701 -2.6161,-2.232 -0.726,-1.0562 -1.0919,-2.232 -1.0919,-3.522 0,-1.7822 0.6361,-3.3721 1.902,-4.7702 1.26,-1.404 2.9821,-2.1058 5.148,-2.1058 1.8179,0 3.5099,0.576 5.082,1.728 0.432,-0.4142 0.8039,-0.8941 1.1219,-1.446 z" />
  <path
     id="path24"
     style="fill:#003359;fill-rule:evenodd;stroke:#007e7c;stroke-width:2.9999001;stroke-linecap:butt;stroke-linejoin:miter;stroke-dasharray:none"
     d="m 188.3959,210.3559 h 39.2052 z" />
  <path
     id="path26"
     style="fill:#1b1918;fill-rule:evenodd"
     d="m 106.4064,214.6085 c 0.0629,-0.0374 0.119,-0.0562 0.1703,-0.0562 h 0.1562 c 0.0329,0 0.0865,-0.002 0.1658,-0.007 0.3501,-0.0328 0.5576,-0.0632 0.6205,-0.0958 0.1588,-0.0864 0.2965,-0.2355 0.4108,-0.4504 0.2358,-0.4643 0.5017,-1.1245 0.7957,-1.9763 0.1423,-0.4037 0.231,-0.6508 0.2661,-0.7373 0.1143,-0.273 0.224,-0.5598 0.3266,-0.8609 l 0.6418,-1.7969 c 0.1003,-0.2823 0.3404,-0.9286 0.7208,-1.9411 0.0958,-0.2543 0.2123,-0.5973 0.3478,-1.0245 l 0.2146,-0.0139 0.2381,0.007 c 0.1959,0.3872 0.3708,0.8073 0.5202,1.2552 0.0816,0.2381 0.2171,0.5927 0.4036,1.0616 l 1.0384,2.821 0.5553,1.5285 c 0.2916,0.8679 0.483,1.4023 0.574,1.6007 0.091,0.2007 0.1752,0.3314 0.252,0.3943 0.0235,0.0187 0.1074,0.0465 0.2568,0.0839 0.1468,0.0351 0.252,0.0629 0.3104,0.0816 0.2098,0.0584 0.3546,0.1052 0.4362,0.1449 0.0187,0.0487 0.0281,0.0862 0.0281,0.1142 0,0.021 -0.007,0.0536 -0.021,0.0981 -0.1448,0.005 -0.2474,0.007 -0.3081,0.007 -0.231,0 -0.6418,-0.005 -1.2274,-0.0139 l -0.6837,-0.0116 -0.826,0.007 c -0.0559,0 -0.112,0 -0.1678,-0.005 -0.0584,-0.002 -0.1075,-0.005 -0.1472,-0.005 h -0.1493 c -0.0514,-0.005 -0.0956,-0.0187 -0.1375,-0.0422 0,-0.0652 0.0116,-0.1281 0.0326,-0.1888 0.0535,-0.0281 0.1049,-0.0445 0.1494,-0.049 l 0.7046,-0.0491 c 0.182,-0.009 0.3221,-0.0326 0.4176,-0.0745 0.0281,-0.0842 0.0419,-0.1449 0.0419,-0.1868 0,-0.0817 -0.0606,-0.2963 -0.1797,-0.6418 -0.0816,-0.2285 -0.1516,-0.4479 -0.2146,-0.6557 -0.0606,-0.2052 -0.3033,-0.8866 -0.7256,-2.0392 -0.1865,-0.0326 -0.3501,-0.049 -0.4924,-0.049 l -1.4559,0.0141 -0.4294,-0.007 c -0.1539,0 -0.3243,0.0117 -0.5108,0.0349 -0.0607,0.1378 -0.0981,0.2359 -0.1168,0.294 l -0.5973,1.8901 c -0.2545,0.7211 -0.3827,1.1154 -0.3827,1.19 0,0.0419 0.021,0.1097 0.0607,0.2052 0.0955,0.0281 0.2239,0.0539 0.3827,0.0771 l 0.9309,0.0817 c 0.049,0.0419 0.0748,0.0793 0.0748,0.1119 0,0.0236 -0.007,0.0584 -0.0212,0.1052 -0.2053,0.005 -0.3615,0.007 -0.4712,0.007 -0.3639,0 -0.7888,-0.0184 -1.2716,-0.0558 -0.2242,-0.009 -0.3827,-0.0142 -0.4785,-0.0142 -0.0955,0 -0.2613,0.005 -0.4991,0.0142 -0.1543,0.009 -0.2662,0.0138 -0.334,0.0138 -0.1094,0 -0.252,-0.007 -0.4246,-0.0209 v -0.042 c 0,-0.0326 0.009,-0.0771 0.0281,-0.1329 z m 3.255,-4.0998 c 0.4853,0.0258 1.0406,0.0397 1.6614,0.0397 0.3546,0 0.665,-0.0116 0.9331,-0.0326 -0.0442,-0.1774 -0.0978,-0.3407 -0.1562,-0.4924 -0.2962,-0.7818 -0.4597,-1.2135 -0.4923,-1.2951 l -0.6208,-1.5562 -0.0675,-0.1214 c -0.028,0.0536 -0.1284,0.2846 -0.301,0.6931 -0.2894,0.7022 -0.4969,1.2484 -0.6231,1.6379 -0.0606,0.1752 -0.1213,0.35 -0.1842,0.5227 -0.063,0.1726 -0.1026,0.2939 -0.1191,0.3639 -0.0164,0.0701 -0.0397,0.1401 -0.0723,0.2124 z m 6.4774,-4.0623 -0.007,-0.322 c 0.7047,0 1.2204,-0.0165 1.5495,-0.0513 0.1261,-0.0117 0.2145,-0.0187 0.2659,-0.0187 0.0396,0 0.1029,0.005 0.1845,0.0139 0.1891,0.1587 0.3662,0.3432 0.5295,0.5485 0.0374,0.0396 0.0794,0.0861 0.1239,0.1352 l 1.4371,1.5936 0.2056,0.2475 c 0.2891,0.3407 0.5553,0.6346 0.7931,0.875 0.2381,0.2427 0.7024,0.7467 1.3929,1.512 l 1.6288,1.8131 c 0.1588,0.1771 0.3617,0.3988 0.6115,0.665 l 0.007,-0.1097 c -0.0278,-0.637 -0.042,-0.9732 -0.042,-1.008 l 0.0281,-0.4108 -0.0139,-0.6463 v -0.2939 c 0,-0.1868 -0.0142,-0.7654 -0.0397,-1.7337 -0.005,-0.1329 -0.0187,-0.3827 -0.0468,-0.7515 -0.0255,-0.3662 -0.0397,-0.6905 -0.0397,-0.9683 0,-0.504 -0.0303,-0.7957 -0.091,-0.8773 -0.0419,-0.0607 -0.2381,-0.1213 -0.5927,-0.1842 -0.0816,-0.005 -0.2123,-0.0188 -0.3895,-0.042 -0.2077,-0.009 -0.3313,-0.021 -0.3687,-0.0329 -0.0375,-0.0139 -0.0746,-0.0536 -0.112,-0.1165 0.009,-0.0723 0.0303,-0.14 0.0629,-0.2029 0.1236,-0.0352 0.2452,-0.0539 0.364,-0.0539 0.1307,0 0.2894,0.0164 0.4807,0.049 0.1914,0.0326 0.364,0.0491 0.5157,0.0491 0.21,0 0.5391,-0.0116 0.987,-0.0326 0.252,-0.0165 0.4269,-0.0235 0.525,-0.0235 h 0.1167 l -0.0141,0.21 c -0.0723,0.0329 -0.1749,0.0513 -0.3033,0.0584 -0.1259,0.007 -0.2472,0.0258 -0.3569,0.0584 -0.1633,0.049 -0.2636,0.0932 -0.294,0.1284 -0.1097,0.1188 -0.1658,0.2401 -0.1658,0.364 l 0.0771,2.1605 0.0558,0.9916 -0.007,0.2871 0.042,1.3743 c 0.0281,0.938 0.042,1.7546 0.042,2.4477 0,0.1516 -0.009,0.4759 -0.0281,0.9777 l -0.3592,0.028 c -0.1587,-0.182 -0.7069,-0.7582 -1.6404,-1.7266 -0.2194,-0.2242 -0.3662,-0.3804 -0.4433,-0.4714 l -0.5856,-0.6789 c -0.2265,-0.252 -0.3734,-0.4107 -0.4434,-0.4807 -0.0677,-0.0678 -0.1168,-0.1191 -0.1494,-0.1494 -0.4946,-0.5669 -1.1364,-1.2739 -1.925,-2.1257 -0.2146,-0.2262 -0.5272,-0.5834 -0.9402,-1.0687 -0.2591,-0.3055 -0.4224,-0.4923 -0.4901,-0.5598 -0.0678,-0.07 -0.1611,-0.1471 -0.2801,-0.2336 l -0.0187,0.2336 c 0,0.8889 0.0212,2.1161 0.0655,3.6819 l 0.049,2.268 c 0.002,0.1914 0.0139,0.3756 0.0326,0.5531 l 0.2404,0.0558 c 0.4317,0.0397 0.8563,0.1026 1.2764,0.1845 0.0326,0.0278 0.0581,0.0465 0.0817,0.0607 l -0.007,0.2565 c -0.0723,0.021 -0.1307,0.0326 -0.1775,0.0326 -0.049,0 -0.1097,-0.005 -0.182,-0.0116 -0.4478,-0.0303 -0.9938,-0.0442 -1.6378,-0.0442 -0.4527,0 -0.8518,0.0116 -1.1971,0.0349 l -0.0932,0.007 c -0.042,0 -0.1004,-0.005 -0.1775,-0.0138 l -0.007,-0.2007 0.1775,-0.0794 0.322,-0.0491 c 0.2868,-0.0396 0.4946,-0.0864 0.6276,-0.1354 0.0864,-0.0326 0.1564,-0.0817 0.2123,-0.1446 0.049,-0.3172 0.0748,-0.7793 0.0748,-1.3884 0,-0.2824 -0.007,-0.8025 -0.021,-1.5585 v -0.9335 l -0.0141,-1.9482 c -0.009,-0.8705 -0.0372,-1.3836 -0.0888,-1.5401 -0.0277,-0.0816 -0.0839,-0.1539 -0.17,-0.2194 -0.1752,-0.1236 -0.4014,-0.2007 -0.6815,-0.2333 -0.28,-0.0303 -0.462,-0.0584 -0.5437,-0.0816 z m 10.5421,8.1621 c 0.0629,-0.0374 0.119,-0.0562 0.1703,-0.0562 h 0.1562 c 0.0329,0 0.0865,-0.002 0.1659,-0.007 0.35,-0.0328 0.5575,-0.0632 0.6205,-0.0958 0.1587,-0.0864 0.2965,-0.2355 0.4107,-0.4504 0.2358,-0.4643 0.5017,-1.1245 0.7957,-1.9763 0.1423,-0.4037 0.231,-0.6508 0.2662,-0.7373 0.1142,-0.273 0.2239,-0.5598 0.3265,-0.8609 l 0.6418,-1.7969 c 0.1003,-0.2823 0.3404,-0.9286 0.7208,-1.9411 0.0958,-0.2543 0.2123,-0.5973 0.3478,-1.0245 l 0.2146,-0.0139 0.2381,0.007 c 0.1959,0.3872 0.3708,0.8073 0.5202,1.2552 0.0816,0.2381 0.2171,0.5927 0.4036,1.0616 l 1.0384,2.821 0.5553,1.5285 c 0.2917,0.8679 0.483,1.4023 0.574,1.6007 0.091,0.2007 0.1752,0.3314 0.252,0.3943 0.0235,0.0187 0.1074,0.0465 0.2568,0.0839 0.1468,0.0351 0.252,0.0629 0.3104,0.0816 0.2098,0.0584 0.3546,0.1052 0.4363,0.1449 0.0187,0.0487 0.028,0.0862 0.028,0.1142 0,0.021 -0.007,0.0536 -0.021,0.0981 -0.1448,0.005 -0.2474,0.007 -0.3081,0.007 -0.231,0 -0.6417,-0.005 -1.2274,-0.0139 l -0.6837,-0.0116 -0.826,0.007 c -0.0559,0 -0.112,0 -0.1678,-0.005 -0.0584,-0.002 -0.1075,-0.005 -0.1471,-0.005 h -0.1494 c -0.0513,-0.005 -0.0956,-0.0187 -0.1375,-0.0422 0,-0.0652 0.0116,-0.1281 0.0326,-0.1888 0.0536,-0.0281 0.1049,-0.0445 0.1494,-0.049 l 0.7047,-0.0491 c 0.182,-0.009 0.322,-0.0326 0.4175,-0.0745 0.0281,-0.0842 0.042,-0.1449 0.042,-0.1868 0,-0.0817 -0.0607,-0.2963 -0.1798,-0.6418 -0.0816,-0.2285 -0.1516,-0.4479 -0.2145,-0.6557 -0.0607,-0.2052 -0.3033,-0.8866 -0.7257,-2.0392 -0.1865,-0.0326 -0.3501,-0.049 -0.4924,-0.049 l -1.4559,0.0141 -0.4294,-0.007 c -0.1539,0 -0.3243,0.0117 -0.5108,0.0349 -0.0607,0.1378 -0.0981,0.2359 -0.1168,0.294 l -0.5973,1.8901 c -0.2545,0.7211 -0.3826,1.1154 -0.3826,1.19 0,0.0419 0.0209,0.1097 0.0606,0.2052 0.0956,0.0281 0.224,0.0539 0.3827,0.0771 l 0.9309,0.0817 c 0.049,0.0419 0.0748,0.0793 0.0748,0.1119 0,0.0236 -0.007,0.0584 -0.0212,0.1052 -0.2052,0.005 -0.3614,0.007 -0.4711,0.007 -0.364,0 -0.7889,-0.0184 -1.2717,-0.0558 -0.2242,-0.009 -0.3826,-0.0142 -0.4784,-0.0142 -0.0956,0 -0.2614,0.005 -0.4992,0.0142 -0.1542,0.009 -0.2662,0.0138 -0.334,0.0138 -0.1094,0 -0.252,-0.007 -0.4246,-0.0209 v -0.042 c 0,-0.0326 0.009,-0.0771 0.0281,-0.1329 z m 3.255,-4.0998 c 0.4853,0.0258 1.0406,0.0397 1.6614,0.0397 0.3546,0 0.665,-0.0116 0.9332,-0.0326 -0.0443,-0.1774 -0.0978,-0.3407 -0.1562,-0.4924 -0.2963,-0.7818 -0.4598,-1.2135 -0.4924,-1.2951 l -0.6208,-1.5562 -0.0675,-0.1214 c -0.028,0.0536 -0.1284,0.2846 -0.301,0.6931 -0.2894,0.7022 -0.4969,1.2484 -0.6231,1.6379 -0.0606,0.1752 -0.1213,0.35 -0.1842,0.5227 -0.0629,0.1726 -0.1026,0.2939 -0.1191,0.3639 -0.0164,0.0701 -0.0396,0.1401 -0.0722,0.2124 z m 6.3794,4.3518 c 0.005,-0.0678 0.0235,-0.1284 0.0538,-0.182 0.3569,-0.0958 0.7022,-0.1588 1.0384,-0.1914 0.2239,-0.0187 0.3662,-0.0677 0.4291,-0.1493 0.0468,-0.0607 0.0749,-0.2801 0.0842,-0.658 l 0.0465,-1.8036 -0.007,-1.2229 0.007,-1.5982 v -0.4246 c 0.005,-0.9615 0,-1.5611 -0.0139,-1.7969 -0.005,-0.0465 -0.0232,-0.1094 -0.0561,-0.1913 -0.1191,-0.0559 -0.2191,-0.091 -0.2985,-0.1094 -0.0816,-0.0188 -0.4411,-0.0842 -1.0806,-0.1985 -0.005,-0.0513 -0.007,-0.0887 -0.007,-0.1119 0,-0.0281 0.002,-0.0655 0.007,-0.112 0.0865,0 0.2288,0.005 0.4272,0.0161 l 1.0429,0.0397 0.6069,0.0142 0.1771,-0.007 c 0.0233,0 0.091,0.005 0.2007,0.0139 0.2707,0 0.4247,-0.002 0.4666,-0.007 l 0.5508,-0.0422 c 0.371,0 0.6324,0.007 0.7841,0.0212 -0.005,0.0791 -0.021,0.1656 -0.0491,0.2588 -0.049,0.009 -0.2871,0.021 -0.7118,0.0374 -0.4246,0.0165 -0.6695,0.042 -0.7324,0.0794 -0.1052,0.0584 -0.1588,0.2427 -0.1588,0.5482 0,0.0723 -0.005,0.2194 -0.0141,0.4434 v 0.4107 l 0.007,1.2671 v 0.4314 l 0.0142,2.2658 -0.0212,1.9321 0.007,0.4246 c 0,0.1352 0.0233,0.2194 0.0678,0.252 0.1142,0.005 0.4504,0.009 1.0032,0.0139 h 0.4643 l 1.1809,-0.042 c 0.3101,-0.007 0.5318,-0.0397 0.6625,-0.091 0.1332,-0.0535 0.3523,-0.2052 0.6627,-0.462 0.1868,-0.1633 0.3314,-0.3311 0.4362,-0.504 0.0236,-0.0371 0.0607,-0.091 0.1168,-0.1656 0.0865,-0.1167 0.203,-0.3546 0.3476,-0.7092 h 0.2242 c -0.0281,0.1633 -0.0584,0.3195 -0.0887,0.4666 -0.133,0.644 -0.2265,1.1806 -0.2753,1.6101 -0.009,0.091 -0.0187,0.1749 -0.0281,0.252 l -2.5551,-0.0749 c -2.1932,0 -3.4951,0.0165 -3.9059,0.0468 -0.1284,0.007 -0.2613,0.009 -0.4036,0.009 z m 7.3689,-8.8342 h 0.3269 c 0.1165,0 0.3755,0.007 0.7744,0.0187 0.6159,0.0258 1.1293,0.0374 1.5378,0.0374 l 0.7957,-0.0141 c 0.1119,0 0.2216,0.009 0.3265,0.0257 0.0303,0.0375 0.0468,0.0746 0.0468,0.1143 v 0.0748 l -0.1726,0.0794 h -0.0749 l -0.3849,0.007 -0.1982,-0.007 c -0.1564,0 -0.2826,0.0349 -0.3781,0.1049 -0.0746,0.049 -0.1097,0.1026 -0.1097,0.1587 0,0.0607 0.0303,0.1352 0.0958,0.2288 0.0232,0.0371 0.0581,0.091 0.1094,0.1632 0.0913,0.154 0.2126,0.3337 0.3617,0.5366 0.2172,0.2988 0.4434,0.6534 0.686,1.0616 0.0958,0.1633 0.1962,0.3198 0.301,0.4691 l 1.0432,1.5634 c 0.0675,-0.0865 0.161,-0.2124 0.2801,-0.3805 l 0.9822,-1.4068 1.1341,-1.6917 c 0.1001,-0.1565 0.1585,-0.273 0.1772,-0.3455 0.009,-0.0372 0.0141,-0.0769 0.0141,-0.1188 0,-0.0958 -0.0445,-0.1752 -0.1306,-0.2333 -0.1401,-0.0981 -0.4388,-0.1681 -0.9009,-0.2149 -0.0326,-0.004 -0.0745,-0.0116 -0.1284,-0.021 -0.0303,-0.0558 -0.0465,-0.1026 -0.0465,-0.14 0,-0.028 0.002,-0.0584 0.007,-0.091 l 0.3546,-0.007 1.2855,0.0559 1.0338,-0.021 c 0.0281,0 0.1236,0.002 0.2869,0.007 l -0.021,0.2378 c -0.0303,0.009 -0.0816,0.0164 -0.1494,0.021 l -0.1655,0.021 c -0.0258,0.002 -0.07,0.007 -0.1284,0.0119 -0.0956,0.0371 -0.1727,0.0745 -0.2262,0.1165 -0.6699,0.7047 -1.2391,1.3697 -1.7105,1.9998 -0.4688,0.6276 -0.8657,1.1993 -1.1899,1.715 -0.1027,0.1678 -0.1891,0.2939 -0.252,0.3756 -0.1191,0.1564 -0.1891,0.2684 -0.2124,0.3429 -0.049,0.1749 -0.0745,0.4434 -0.0745,0.8028 0,1.4094 0.0255,2.2422 0.0768,2.4965 0.0281,0.1261 0.0629,0.2032 0.1097,0.231 0.1213,0.0584 0.5998,0.1284 1.4375,0.2101 v 0.0816 c 0,0.0561 -0.0165,0.1213 -0.0491,0.1984 l -1.7617,-0.0561 -1.1784,0.0632 h -0.9635 c -0.0935,0 -0.1939,-0.002 -0.3036,-0.007 -0.0184,-0.0561 -0.0277,-0.0958 -0.0277,-0.1213 0,-0.0258 0.007,-0.0607 0.0209,-0.1052 0.0326,-0.0303 0.063,-0.0487 0.0956,-0.0535 l 0.8889,-0.1353 c 0.3059,-0.1003 0.4785,-0.168 0.5159,-0.2055 0.0536,-0.0535 0.0885,-0.1374 0.1026,-0.2494 0.005,-0.0819 0.007,-0.7118 0.007,-1.8879 0,-0.4385 -0.0139,-0.7069 -0.0442,-0.805 -0.0303,-0.0978 -0.1258,-0.2682 -0.2917,-0.5131 l -0.896,-1.3603 -1.5282,-2.2216 c -0.2639,-0.392 -0.4923,-0.6533 -0.6859,-0.7863 -0.0865,-0.0606 -0.3036,-0.1049 -0.6466,-0.1377 -0.0372,0 -0.091,-0.005 -0.1633,-0.0139 z m 9.5786,1.0735 0.2823,-1.0315 c 0.0187,-0.1375 0.042,-0.2263 0.0746,-0.2637 0.0326,-0.0397 0.0677,-0.0581 0.1097,-0.0581 0.0816,0 0.1726,0.0978 0.2777,0.294 0.0769,0.1423 0.1423,0.2333 0.1914,0.2729 0.0487,0.0372 0.1236,0.063 0.2191,0.0769 l 0.0678,-0.007 0.2939,0.028 1.6124,0.021 1.904,-0.007 h 0.5601 l 1.0593,-0.0187 c 0.0465,0 0.1026,0.002 0.1704,0.0116 0.3101,0.0281 0.5014,0.042 0.574,0.042 0.0675,0 0.1236,-0.0233 0.1633,-0.0675 0.0139,-0.0187 0.0887,-0.1681 0.2262,-0.4527 0.0606,-0.1284 0.1329,-0.1936 0.2194,-0.1936 0.0374,0 0.0839,0.009 0.1377,0.0278 0.0233,0.0887 0.0349,0.1704 0.0349,0.2426 l -0.007,0.273 0.007,0.5766 c 0,0.14 -0.0116,0.5924 -0.0349,1.3555 0,0.0513 -0.009,0.0958 -0.028,0.1378 -0.0491,0.0303 -0.0933,0.0465 -0.1284,0.0465 -0.0374,0 -0.07,-0.0162 -0.0981,-0.0513 -0.0278,-0.0326 -0.0607,-0.1375 -0.1026,-0.3127 -0.091,-0.4059 -0.2053,-0.6976 -0.3407,-0.8725 -0.091,-0.112 -0.2217,-0.1936 -0.3918,-0.2427 -0.1704,-0.049 -0.5788,-0.0748 -1.2229,-0.0748 -0.5179,0 -0.9005,0 -1.1525,0 -0.007,0.182 -0.0117,0.3478 -0.0117,0.4995 l 0.0536,4.2395 c 0,0.1681 -0.009,0.4878 -0.028,0.9567 l 0.007,0.9076 -0.007,0.5066 c 0,0.1584 0.028,0.2729 0.0816,0.3404 0.0561,0.0678 0.2055,0.1355 0.4459,0.1984 0.4198,0.1052 0.6999,0.1681 0.8422,0.1914 0.0864,0.009 0.1587,0.0303 0.2123,0.0584 v 0.2216 l -0.9729,-0.0258 c -0.5343,-0.002 -0.9357,-0.0138 -1.2041,-0.0303 l -1.0009,0.0445 -0.7302,0.0397 c -0.2078,0 -0.3314,-0.005 -0.3782,-0.0142 l -0.0955,-0.0397 c 0.009,-0.1026 0.0303,-0.1678 0.0606,-0.1981 0.0326,-0.0281 0.1165,-0.0513 0.2543,-0.07 0.1913,-0.0281 0.4176,-0.0771 0.6789,-0.1471 0.2614,-0.07 0.4317,-0.1423 0.5134,-0.2146 0.0467,-0.042 0.0793,-0.1097 0.098,-0.2055 0.0397,-0.2004 0.0607,-0.595 0.0607,-1.1852 v -1.1619 l -0.0281,-2.5387 -0.028,-0.546 -0.007,-1.8272 c -0.2872,0 -0.6534,0 -1.1016,0 -0.6556,0 -1.0545,0.0397 -1.1968,0.1191 -0.2242,0.1236 -0.5555,0.4853 -0.9989,1.0851 -0.1468,0.2239 -0.2752,0.3359 -0.3872,0.3359 l -0.0607,-0.0139 c -0.0187,-0.0281 -0.028,-0.0513 -0.028,-0.0748 0,-0.0559 0.0374,-0.2192 0.1097,-0.4924 0.0932,-0.3498 0.1494,-0.5879 0.1681,-0.7115 z m 8.6496,7.5248 c 0.1004,-0.0397 0.203,-0.0629 0.3081,-0.0723 0.6999,-0.0464 1.099,-0.1284 1.1994,-0.2497 0.1003,-0.1213 0.1516,-0.7092 0.1516,-1.7614 l -0.007,-0.7212 v -0.756 l -0.028,-0.8305 0.0142,-0.4879 -0.007,-0.5343 v -0.6321 l -0.0139,-0.2823 0.0139,-0.3572 c 0.005,-0.0817 0.007,-0.1772 0.007,-0.2869 0,-0.2894 -0.0142,-0.595 -0.042,-0.9147 -0.0164,-0.063 -0.0422,-0.1262 -0.0748,-0.1843 -0.1681,-0.0887 -0.4411,-0.1471 -0.819,-0.1752 -0.3756,-0.0303 -0.5904,-0.0629 -0.6417,-0.1003 -0.0349,-0.0278 -0.0559,-0.0978 -0.0607,-0.21 h 0.5763 l 1.8153,0.0561 c 0.4669,0 1.0874,-0.0187 1.8643,-0.0561 0,0.0725 -0.004,0.14 -0.0138,0.2032 -0.091,0.0232 -0.2427,0.0488 -0.4573,0.0768 -0.434,0.0491 -0.6979,0.0981 -0.7934,0.1423 -0.0607,0.0235 -0.1026,0.0632 -0.1307,0.1168 -0.0442,0.0816 -0.0722,0.2356 -0.0816,0.4598 l -0.0352,0.8841 0.0281,3.0498 v 1.2064 c -0.009,0.3779 -0.0139,0.637 -0.0139,0.7745 0,0.511 0.0139,0.8379 0.0374,0.9802 0.0255,0.1423 0.0698,0.2426 0.133,0.3055 0.0629,0.0607 0.1655,0.1097 0.3078,0.1472 0.2123,0.0487 0.3804,0.0768 0.4995,0.0816 0.2588,0.009 0.4224,0.0465 0.4924,0.1097 0.0139,0.0581 0.0209,0.1094 0.0209,0.1517 v 0.0535 c -0.4178,0.0139 -0.7256,0.021 -0.9241,0.021 -0.1142,0 -0.3171,-0.007 -0.6114,-0.0187 l -0.9496,0.0116 -1.6191,-0.007 h -0.1307 z m 12.7565,-8.1501 c 0.0536,0.3475 0.0816,0.7069 0.0816,1.0732 0,0.0722 -0.002,0.1703 -0.007,0.2916 -0.0629,0.0142 -0.1119,0.021 -0.1423,0.021 -0.0277,0 -0.0674,-0.005 -0.1165,-0.0139 -0.1913,-0.5298 -0.504,-0.938 -0.938,-1.2226 -0.4317,-0.2871 -0.9683,-0.4294 -1.6078,-0.4294 -0.3359,0 -0.6205,0.0397 -0.854,0.1168 -0.4105,0.1397 -0.7699,0.3359 -1.0803,0.5831 -0.3101,0.2474 -0.5715,0.5437 -0.7864,0.8866 -0.2145,0.343 -0.3849,0.7609 -0.5085,1.2507 -0.1261,0.4878 -0.1891,0.987 -0.1891,1.4981 0,0.9731 0.1494,1.7782 0.4456,2.4126 0.2965,0.6346 0.7025,1.0873 1.2158,1.358 0.5156,0.2708 1.0361,0.406 1.5611,0.406 l 0.3194,-0.007 c 0.3665,-0.0445 0.6137,-0.0888 0.747,-0.1307 0.3336,-0.0933 0.6066,-0.2078 0.8234,-0.3359 0.2172,-0.1307 0.4295,-0.313 0.637,-0.5508 0.2077,-0.2358 0.3826,-0.5111 0.5298,-0.8237 l 0.0839,-0.0281 c 0.0235,0 0.0584,0.0142 0.1051,0.0422 -0.005,0.1072 -0.009,0.1772 -0.0141,0.2098 -0.1936,0.7702 -0.3337,1.2951 -0.4224,1.5775 -0.0723,0.0161 -0.1633,0.0442 -0.273,0.0816 -0.5343,0.182 -1.2458,0.273 -2.1396,0.273 -0.7208,0 -1.26,-0.049 -1.6169,-0.1471 -0.3571,-0.0978 -0.7466,-0.2495 -1.169,-0.4573 -0.4223,-0.2052 -0.7911,-0.4807 -1.1106,-0.8211 -0.3197,-0.3408 -0.5765,-0.7725 -0.7724,-1.2929 -0.1962,-0.5202 -0.294,-1.0874 -0.294,-1.7034 0,-0.5808 0.0768,-1.0896 0.2333,-1.5236 0.1539,-0.434 0.3943,-0.875 0.7163,-1.3207 0.3243,-0.4456 0.7047,-0.8166 1.1458,-1.1106 0.4385,-0.2962 0.9286,-0.5062 1.4652,-0.6276 0.3779,-0.0816 0.9148,-0.1238 1.6076,-0.1238 0.5065,0 0.9824,0.0654 1.4281,0.1984 0.4456,0.1329 0.7443,0.2636 0.896,0.3898 z m 6.2322,-0.0817 c 0.0375,0.3033 0.0536,0.4782 0.0536,0.5227 l -0.0255,0.6112 c -0.009,0.2613 -0.021,0.4294 -0.0352,0.5017 -0.0396,0.0187 -0.0745,0.0281 -0.1003,0.0281 l -0.0607,-0.0142 c -0.1445,-0.644 -0.392,-1.1129 -0.7395,-1.4068 -0.3478,-0.294 -0.7702,-0.4411 -1.2694,-0.4411 -0.5179,0 -0.9428,0.1471 -1.2739,0.4388 -0.3313,0.2939 -0.4972,0.6344 -0.4972,1.0242 0,0.2987 0.1168,0.5694 0.3479,0.8166 0.231,0.2475 0.8234,0.6208 1.7778,1.1177 0.7257,0.3827 1.2462,0.6931 1.5611,0.9309 0.3126,0.2404 0.5482,0.5159 0.7092,0.8308 0.1587,0.315 0.2381,0.6651 0.2381,1.0523 0,0.4878 -0.1261,0.945 -0.3781,1.3745 -0.2543,0.4269 -0.595,0.7489 -1.0219,0.9658 -0.4269,0.2171 -0.9941,0.3245 -1.7011,0.3245 -0.6137,0 -1.2039,-0.0981 -1.7685,-0.2942 -0.3314,-0.1188 -0.5344,-0.2146 -0.6066,-0.2892 -0.0726,-0.0722 -0.1097,-0.1493 -0.1097,-0.2332 0,-0.0491 0.004,-0.1123 0.0139,-0.1914 0.0606,-0.5369 0.0932,-0.9802 0.098,-1.3255 0.009,-0.2145 0.0255,-0.3407 0.0468,-0.3756 0.0184,-0.0325 0.0513,-0.049 0.1001,-0.049 0.0397,0 0.0725,0.0139 0.098,0.0442 0.0236,0.0304 0.0397,0.0865 0.0491,0.1681 0.0513,0.5602 0.3104,1.0616 0.7792,1.5049 0.4669,0.4411 0.9941,0.6628 1.582,0.6628 0.3617,0 0.6931,-0.0746 0.9964,-0.2262 0.3033,-0.1494 0.5414,-0.3688 0.7118,-0.6534 0.1704,-0.2846 0.2565,-0.5624 0.2565,-0.8331 0,-0.3685 -0.1281,-0.707 -0.3872,-1.0126 -0.2591,-0.3058 -0.7792,-0.6627 -1.561,-1.0712 -0.7818,-0.4082 -1.2903,-0.7069 -1.5259,-0.8934 -0.3852,-0.3059 -0.6721,-0.6302 -0.8634,-0.9732 -0.1423,-0.2659 -0.2124,-0.574 -0.2124,-0.9238 0,-0.6347 0.2498,-1.1738 0.749,-1.6149 0.5017,-0.4408 1.1712,-0.6602 2.0114,-0.6602 0.4643,0 0.8657,0.0536 1.2016,0.1588 0.2449,0.0816 0.4969,0.2168 0.756,0.4036 z" />
  <path
     id="path28"
     style="fill:#003359;fill-rule:evenodd;stroke:#007e7c;stroke-width:2.9999001;stroke-linecap:butt;stroke-linejoin:miter;stroke-dasharray:none"
     d="M 61.7289,210.2613 H 100.914 Z" />
</svg>
