<svg width="163" height="153" xmlns="http://www.w3.org/2000/svg">
 <!-- Created with Method Draw - http://github.com/duopixel/Method-Draw/ -->

 <g>
  <title>background</title>
  <rect fill="#fff" id="canvas_background" height="155" width="165" y="-1" x="-1"/>
  <g display="none" overflow="visible" y="0" x="0" height="100%" width="100%" id="canvasGrid">
   <rect fill="url(#gridpattern)" stroke-width="0" y="0" x="0" height="100%" width="100%"/>
  </g>
 </g>
 <g>
  <title>Layer 1</title>
  <metadata transform="matrix(0.21433469792125326,0,0,0.21433469792125326,0,0) " id="svg_33">image/svg+xml</metadata>

  <g stroke="null" id="svg_35">
   <path stroke="null" fill="#ffffff" fill-rule="evenodd" d="m0.999993,191.28923l446.701629,0l0,-234.578461l-446.701629,0l0,234.578461z" id="svg_32"/>
   <path stroke="null" fill="#234a58" fill-rule="evenodd" d="m99.485075,25.673813c0.52293,-2.15231 1.145325,-4.034801 1.405704,-5.965303c0.260844,-1.930173 0.161379,-3.908194 0.219103,-5.854974c22.40809,5.993419 44.09044,28.226504 46.084246,60.813697c1.843444,30.139248 -16.314637,59.41823 -43.300924,69.676644c-27.747561,10.547471 -52.776663,-0.818832 -64.638327,-13.441827c3.477406,-1.69702 6.250331,-4.278148 8.517396,-7.635851c14.592693,12.525985 31.017502,16.424313 49.276446,10.896543c13.917539,-4.212872 24.509741,-13.307163 31.830604,-26.636688c5.521178,-10.049595 7.804845,-20.934628 7.06514,-32.429675c-0.742033,-11.534179 -4.380663,-21.883026 -11.073545,-30.904971c-6.653624,-8.970809 -15.234485,-15.020133 -25.385842,-18.517595z" id="svg_31"/>
   <path stroke="null" fill="#007e7c" fill-rule="evenodd" d="m115.879005,57.980498c-4.087698,0.163109 -7.675121,1.469951 -10.989442,3.85081c-5.992591,-7.676957 -13.608747,-11.599949 -23.059968,-11.041072c-7.271829,0.432435 -13.514247,3.589705 -18.597684,9.265292c-10.217926,11.40971 -10.242909,29.557023 0,40.530516c5.932384,6.355152 13.231834,9.2061 21.721143,8.377403c8.438103,-0.82212 15.127571,-5.164558 20.180129,-12.259289c1.906755,0.803869 3.62932,1.728096 5.459109,2.24932c1.791927,0.511194 3.691233,0.61659 5.516212,0.896275c-5.312937,11.414314 -20.144595,23.154023 -38.428521,20.895002c-17.362049,-2.144089 -31.853725,-16.929095 -33.181998,-37.293337c-1.227256,-18.805009 9.757376,-36.166703 26.35753,-42.292813c18.437547,-6.803865 36.670577,1.885779 45.02349,16.821891z" id="svg_30"/>
   <path stroke="null" fill="#234a58" fill-rule="evenodd" d="m61.908914,15.721063c0.161379,1.972924 0.164482,3.997147 0.529137,5.937515c0.356585,1.898768 1.081549,3.710885 1.585548,5.366471c-25.314618,13.114623 -36.519594,34.353107 -33.675445,64.066497c-3.547079,0.338385 -7.044812,1.643911 -10.362236,4.187715c-2.92189,-15.969023 -1.128101,-31.130232 5.781557,-45.602997c8.776533,-18.377671 23.794087,-29.683465 36.14144,-33.9552z" id="svg_29"/>
   <path stroke="null" fill="#6d151a" fill-rule="evenodd" d="m91.610712,67.345925c6.414348,4.960508 7.761708,14.59263 3.017787,21.561084c-4.734145,6.956779 -13.968591,8.56945 -20.393956,3.559451c-6.382383,-4.973662 -7.69669,-14.696053 -2.922045,-21.588543c4.7883,-6.91107 13.883246,-8.494308 20.298215,-3.531992z" id="svg_28"/>
   <path stroke="null" fill="#6d151a" fill-rule="evenodd" d="m122.41175,69.737472c4.656249,3.795235 5.503954,10.873688 1.897599,15.858859c-3.624975,5.004902 -10.354788,6.034361 -14.927554,2.280561c-4.586887,-3.765474 -5.424816,-10.817291 -1.872927,-15.768097c3.623113,-5.054558 10.304978,-6.116902 14.902882,-2.371323z" id="svg_27"/>
   <path stroke="null" fill="#6d151a" fill-rule="evenodd" d="m75.565919,26.547233c-4.83361,-3.212681 -6.118435,-10.302643 -2.644287,-15.791281c3.139131,-4.961988 9.453394,-6.596527 14.615969,-3.147075c4.817783,3.219751 6.15397,10.388637 2.720011,15.811012c-3.238597,5.115231 -9.766531,6.656048 -14.691693,3.127345z" id="svg_26"/>
   <path stroke="null" fill="#6d151a" fill-rule="evenodd" d="m40.333788,117.971417c-2.979149,5.187577 -9.499635,6.756018 -14.624813,3.521798c-4.888076,-3.084594 -6.239314,-10.194124 -2.994976,-15.754943c2.794804,-4.79148 9.479307,-6.558873 13.929798,-3.895205c5.715143,3.423472 7.012226,10.993553 3.689992,16.12835z" id="svg_25"/>
   <path stroke="null" fill="#234a58" fill-rule="evenodd" d="m206.830638,132.056141l-0.242379,1.864733l-7.965914,0l2.121978,-15.703314l2.045634,0l-1.93003,13.838582l5.970711,0zm19.656268,-7.577151c0,1.492312 -0.282413,2.984789 -0.847084,4.481376c-0.568395,1.492312 -1.393911,2.727465 -2.476391,3.702006c-1.086515,0.974705 -2.375219,1.461729 -3.867354,1.461729c-1.621703,0 -2.910873,-0.563974 -3.866733,-1.691923c-0.959274,-1.127949 -1.437514,-2.777286 -1.437514,-4.953109c0,-1.461565 0.29343,-2.923294 0.879826,-4.38897c0.586706,-1.465511 1.422928,-2.677809 2.509288,-3.636894c1.086049,-0.95925 2.346202,-1.438874 3.780147,-1.438874c1.031894,0 1.951289,0.257324 2.755391,0.771477c0.800067,0.513989 1.429911,1.258337 1.885961,2.232549c0.456671,0.974541 0.684464,2.125673 0.684464,3.460632zm-7.129226,7.83431c1.119101,0 2.053237,-0.42964 2.806287,-1.292866c0.75305,-0.859444 1.306859,-1.914717 1.661893,-3.157763c0.350999,-1.243045 0.528671,-2.41654 0.528671,-3.518016c0,-1.289084 -0.253396,-2.362937 -0.757085,-3.218764c-0.506637,-0.859444 -1.324859,-1.289084 -2.458236,-1.289084c-1.093498,0 -2.023909,0.42964 -2.784408,1.289084c-0.760033,0.855827 -1.328739,1.910607 -1.705341,3.161545c-0.380016,1.250445 -0.56824,2.44367 -0.56824,3.575235c0,1.416019 0.267827,2.513221 0.807205,3.288316c0.53612,0.775095 1.361325,1.162313 2.469253,1.162313zm26.807684,-7.83431c0,1.492312 -0.282413,2.984789 -0.84724,4.481376c-0.56824,1.492312 -1.393911,2.727465 -2.476391,3.702006c-1.086515,0.974705 -2.375219,1.461729 -3.867199,1.461729c-1.621859,0 -2.911028,-0.563974 -3.866888,-1.691923c-0.959274,-1.127949 -1.437359,-2.777286 -1.437359,-4.953109c0,-1.461565 0.29343,-2.923294 0.879671,-4.38897c0.586861,-1.465511 1.422928,-2.677809 2.509443,-3.636894c1.085894,-0.95925 2.346202,-1.438874 3.780147,-1.438874c1.031894,0 1.951134,0.257324 2.755235,0.771477c0.800067,0.513989 1.429911,1.258337 1.886117,2.232549c0.456516,0.974541 0.684464,2.125673 0.684464,3.460632zm-7.129226,7.83431c1.118946,0 2.053237,-0.42964 2.806287,-1.292866c0.75305,-0.859444 1.306704,-1.914717 1.661738,-3.157763c0.350999,-1.243045 0.528671,-2.41654 0.528671,-3.518016c0,-1.289084 -0.253396,-2.362937 -0.756929,-3.218764c-0.506792,-0.859444 -1.324859,-1.289084 -2.458391,-1.289084c-1.093498,0 -2.023754,0.42964 -2.784253,1.289084c-0.760188,0.855827 -1.328894,1.910607 -1.705341,3.161545c-0.380016,1.250445 -0.568395,2.44367 -0.568395,3.575235c0,1.416019 0.267982,2.513221 0.807205,3.288316c0.53612,0.775095 1.361325,1.162313 2.469409,1.162313zm23.614087,-14.095741l2.407805,0l-6.712589,7.094238l6.172901,8.609076l-2.346202,0l-6.086315,-8.563366l-1.126084,8.563366l-1.951599,0l2.100409,-15.703314l1.962151,0l-0.962843,7.001996l6.542365,-7.001996zm28.567025,3.821378c0,1.507768 -0.687878,2.59757 -2.067358,3.27286c0.926843,0.337562 1.665307,0.859115 2.216012,1.568934c0.550395,0.706037 0.825205,1.557589 0.825205,2.554985c0,1.684524 -0.579257,2.85473 -1.737772,3.506835c-1.15867,0.652106 -2.451409,0.978323 -3.870457,0.978323l-4.359404,0l2.099944,-15.703314l2.331616,0c1.430531,0 2.545443,0.349565 3.353114,1.039817c0.80705,0.694527 1.209101,1.622865 1.209101,2.781561zm-5.155903,2.4634c0.88355,0 1.6186,-0.180373 2.204995,-0.541284c0.590275,-0.360746 0.88355,-0.985722 0.88355,-1.875913c0,-0.732673 -0.228258,-1.266394 -0.684309,-1.595899c-0.456206,-0.329999 -1.053463,-0.494916 -1.788513,-0.494916l-0.637292,0l-0.582826,4.508013l0.604395,0zm0.572119,7.665118c1.14067,0 2.013358,-0.233975 2.621632,-0.701926c0.607809,-0.467951 0.912257,-1.131566 0.912257,-1.983611c0,-0.935901 -0.336879,-1.714778 -1.006446,-2.328573c-0.673292,-0.613795 -1.611152,-0.920939 -2.81327,-0.920939l-1.133532,0l-0.796498,5.935049l2.215857,0zm16.412551,-12.081382l-0.647999,4.922361l5.123006,0l-0.231827,1.864733l-5.155437,0l-0.710067,5.182973l7.690484,0l-0.267827,1.864733l-9.725255,0l2.143392,-15.703314l7.84969,0l-0.246258,1.868514l-5.821901,0zm21.41623,-1.868514l2.258995,0l-5.166454,7.880514l-1.060912,7.822801l-1.984341,0l1.071929,-7.822801l-3.501148,-7.880514l2.06022,0l2.544977,5.847082l3.776733,-5.847082zm19.993302,6.26143c0,1.492312 -0.282413,2.984789 -0.84724,4.481376c-0.56824,1.492312 -1.393911,2.727465 -2.476391,3.702006c-1.08636,0.974705 -2.375219,1.461729 -3.867199,1.461729c-1.621703,0 -2.911028,-0.563974 -3.866733,-1.691923c-0.959429,-1.127949 -1.437514,-2.777286 -1.437514,-4.953109c0,-1.461565 0.29343,-2.923294 0.879671,-4.38897c0.586861,-1.465511 1.422928,-2.677809 2.509443,-3.636894c1.086049,-0.95925 2.346202,-1.438874 3.780147,-1.438874c1.031894,0 1.951134,0.257324 2.755235,0.771477c0.800067,0.513989 1.429911,1.258337 1.886117,2.232549c0.456516,0.974541 0.684464,2.125673 0.684464,3.460632zm-7.129226,7.83431c1.118946,0 2.053237,-0.42964 2.806287,-1.292866c0.75305,-0.859444 1.306704,-1.914717 1.661738,-3.157763c0.350999,-1.243045 0.528671,-2.41654 0.528671,-3.518016c0,-1.289084 -0.253241,-2.362937 -0.756929,-3.218764c-0.506792,-0.859444 -1.324859,-1.289084 -2.458391,-1.289084c-1.093498,0 -2.023754,0.42964 -2.784253,1.289084c-0.760188,0.855827 -1.328894,1.910607 -1.705341,3.161545c-0.380016,1.250445 -0.568395,2.44367 -0.568395,3.575235c0,1.416019 0.267982,2.513221 0.807205,3.288316c0.53612,0.775095 1.361325,1.162313 2.469409,1.162313zm24.421758,-2.539693l1.538686,-11.556048l1.907996,0l-2.099789,15.703314l-1.050049,0l-7.277881,-11.463806l-1.538531,11.463806l-1.908151,0l2.099944,-15.703314l0.977739,0l7.350036,11.556048zm22.549297,-3.675534c0,1.204899 -0.188224,2.313775 -0.56824,3.322351c-0.376603,1.005288 -0.934291,1.860951 -1.669341,2.566659c-0.77105,0.733167 -1.669186,1.239264 -2.70108,1.519442c-1.028015,0.276397 -2.212133,0.414348 -3.558872,0.414348l-4.06256,0l2.110806,-15.703314l1.995203,0c1.607272,0 3.048666,0.288071 4.322939,0.867337c1.278308,0.575648 2.284599,1.45433 3.023218,2.635717c0.738929,1.177769 1.107929,2.639498 1.107929,4.37746zm-2.088927,0c0,-1.258337 -0.249827,-2.336465 -0.749481,-3.237837c-0.496085,-0.898084 -1.198549,-1.580937 -2.103823,-2.048887c-0.905274,-0.472226 -1.951599,-0.706201 -3.138821,-0.706201l-0.637292,0l-1.600755,11.928139l1.930186,0c2.114375,0 3.69294,-0.533227 4.735852,-1.603792c1.042446,-1.066454 1.564135,-2.508946 1.564135,-4.331421z" id="svg_24"/>
   <path stroke="null" fill="#13160f" fill-rule="evenodd" d="m189.930846,22.577215l0,11.502939l-1.173101,0c-1.27567,-6.994597 -4.562214,-10.486963 -9.87841,-10.486963c-2.848959,0 -4.934317,1.183853 -6.247228,3.551558c-1.30329,2.367706 -1.964479,7.359454 -1.964479,14.975738c0,6.264719 0.28862,10.516724 0.84724,12.775909c0.567775,2.24932 1.545669,3.867088 2.932908,4.833737c1.396549,0.976843 2.923287,1.46025 4.599145,1.46025c2.178616,0 4.227043,-0.868323 6.144814,-2.614342c1.917772,-1.736153 3.407579,-4.538267 4.459801,-8.39549l1.284825,0l-0.43774,11.818962l-1.117239,0c-0.418654,-1.233344 -1.070532,-2.26938 -1.964323,-3.117643c-2.867425,2.525717 -5.828108,3.788329 -8.863584,3.788329c-3.854474,0 -7.373777,-1.933791 -10.557908,-5.810744c-3.184131,-3.877282 -4.766731,-8.612694 -4.766731,-14.2258c0,-5.72212 1.564135,-10.566051 4.692404,-14.551524c3.118959,-3.975772 6.74083,-5.968756 10.846373,-5.968756c3.165666,0 5.958763,1.213285 8.379292,3.620617c0.70774,-1.193718 1.247428,-2.24932 1.610841,-3.156776l1.173101,0zm18.899804,1.913731l0,16.613566l3.295855,0c1.163791,0 2.15084,-0.118385 2.960683,-0.355156c0.810153,-0.246636 1.536359,-0.897755 2.178616,-1.953357c0.651878,-1.065468 1.01467,-2.722861 1.107929,-4.972182l1.415014,0l0,16.415928l-1.415014,0c-0.14912,-3.117643 -0.716895,-5.179192 -1.703945,-6.1659c-0.995894,-0.996409 -2.504167,-1.489517 -4.543283,-1.489517l-3.295855,0l0,17.718166l7.438794,0c4.227043,0 7.141174,-0.947082 8.770326,-2.82168c1.629307,-1.88397 2.597891,-4.774544 2.904821,-8.681258l1.396549,0l-0.353637,12.972889l-32.437327,0l0,-1.469951l5.809643,0l0,-35.811547l-5.809643,0l0,-1.479816l31.09664,0l0.623792,10.348847l-1.387394,0c-0.474516,-3.13721 -1.4431,-5.406097 -2.913977,-6.787587c-1.480186,-1.390698 -3.928802,-2.081443 -7.364622,-2.081443l-7.773966,0zm38.721486,19.533571l0,16.277976l5.921367,0l0,1.469951l-18.220151,0l0,-1.469951l5.809643,0l0,-35.811547l-5.809643,0l0,-1.479816l18.843942,0c4.254663,0 7.467036,1.006275 9.61741,3.008959c2.160151,2.002849 3.230838,4.46888 3.230838,7.39908c0,3.009124 -1.079843,5.524482 -3.258459,7.557092c-2.169461,2.032116 -5.782022,3.048257 -10.837218,3.048257l-5.29773,0zm0,-19.533571l0,18.034189l3.519303,0c1.834289,0 3.370182,-0.167877 4.58068,-0.493601c1.219808,-0.325395 2.271874,-1.193718 3.15651,-2.604476c0.87486,-1.400564 1.321756,-3.58099 1.321756,-6.530757c0,-2.594775 -0.391034,-4.508506 -1.163946,-5.731985c-0.772291,-1.222986 -1.685014,-1.972924 -2.737236,-2.259021c-1.051601,-0.276397 -2.364667,-0.414348 -3.928802,-0.414348l-4.748266,0zm29.93285,35.811547l0,-35.811547l-5.763091,0l0,-1.479816l18.061875,0l0,1.479816l-5.809643,0l0,16.554373l15.790466,0l0,-16.554373l-5.697919,0l0,-1.479816l17.950151,0l0,1.479816l-5.762936,0l0,35.811547l5.762936,0l0,1.469951l-17.950151,0l0,-1.469951l5.697919,0l0,-17.777359l-15.790466,0l0,17.777359l5.809643,0l0,1.469951l-18.061875,0l0,-1.469951l5.763091,0zm52.398508,-35.811547l0,16.613566l3.295855,0c1.163791,0 2.15084,-0.118385 2.960683,-0.355156c0.810153,-0.246636 1.536359,-0.897755 2.178616,-1.953357c0.651878,-1.065468 1.01467,-2.722861 1.107929,-4.972182l1.415014,0l0,16.415928l-1.415014,0c-0.14912,-3.117643 -0.716895,-5.179192 -1.703945,-6.1659c-0.995894,-0.996409 -2.504167,-1.489517 -4.543283,-1.489517l-3.295855,0l0,17.718166l7.438794,0c4.227043,0 7.141174,-0.947082 8.770326,-2.82168c1.629307,-1.88397 2.597891,-4.774544 2.904821,-8.681258l1.396549,0l-0.353637,12.972889l-32.437327,0l0,-1.469951l5.809643,0l0,-35.811547l-5.809643,0l0,-1.479816l31.09664,0l0.623792,10.348847l-1.387394,0c-0.474516,-3.13721 -1.4431,-5.406097 -2.913977,-6.787587c-1.480186,-1.390698 -3.928802,-2.081443 -7.364622,-2.081443l-7.773966,0zm57.109378,0l-5.977229,0l0,-1.479816l13.071696,0l0,1.479816l-5.763091,0l0,23.440286c0,3.383682 -0.232603,5.889832 -0.716895,7.5076c-0.483827,1.617768 -1.359152,2.979198 -2.634822,4.074591c-1.275515,1.1046 -2.793097,1.903866 -4.57137,2.407332c-1.768651,0.493108 -3.602941,0.749445 -5.492937,0.749445c-4.003595,0 -6.926882,-0.670686 -8.779636,-1.992983c-1.862375,-1.33167 -2.99808,-2.969497 -3.42651,-4.912989c-0.427965,-1.953357 -0.642102,-4.557833 -0.642102,-7.832995l0,-23.440286l-5.28842,0l0,-1.479816l17.48479,0l0,1.479816l-5.753781,0l0,22.7696c0,3.146911 0.130655,5.613435 0.400189,7.39908c0.27931,1.795346 1.015291,3.284863 2.216012,4.478581c1.201342,1.203913 3.100649,1.795839 5.697919,1.795839c2.113599,0 4.003595,-0.453975 5.670298,-1.371296c1.675858,-0.91765 2.848959,-2.141129 3.509527,-3.690003c0.661188,-1.539009 0.99636,-4.409523 0.99636,-8.6122l0,-22.7696zm34.178203,-1.913731l0.167586,10.062749l-1.284825,0c-1.815203,-6.027948 -5.027575,-9.046773 -9.626721,-9.046773c-2.551184,0 -4.524818,0.749938 -5.930522,2.239619c-1.41548,1.489517 -2.113599,3.038391 -2.113599,4.636592c0,1.479816 0.586395,2.742428 1.759496,3.788329c1.173101,1.036036 3.314786,1.844673 6.424124,2.417033c3.109804,0.562166 5.474471,1.252911 7.104088,2.071742c1.629307,0.818996 2.997614,2.190128 4.114853,4.094158c1.117239,1.903866 1.675858,4.093993 1.675858,6.560518c0,3.798194 -1.163791,6.954971 -3.500372,9.480688c-2.336892,2.525717 -5.232558,3.788329 -8.686688,3.788329c-2.820873,0 -5.632902,-1.105094 -8.435154,-3.324653l-2.560495,2.426898l-0.958808,0l0,-10.841954l1.173101,0c1.079843,3.413113 2.578805,5.978457 4.506352,7.695043c1.926927,1.706721 4.031215,2.56485 6.330866,2.56485c2.271874,0 4.357232,-0.789071 6.256538,-2.377571c1.899306,-1.588336 2.848959,-3.600886 2.848959,-6.027784c0,-2.041982 -0.661188,-3.758568 -1.973634,-5.159625c-1.322221,-1.401057 -3.454286,-2.35784 -6.414969,-2.890574c-2.951373,-0.532734 -5.223247,-1.144227 -6.805847,-1.854538c-1.5826,-0.700611 -2.932597,-1.92409 -4.059457,-3.669944c-1.126549,-1.736646 -1.694324,-3.669944 -1.694324,-5.791178c0,-2.9302 0.98705,-5.544542 2.951373,-7.843189c1.955168,-2.308513 4.627387,-3.462605 7.988259,-3.462605c2.820873,0 5.446385,0.947082 7.885845,2.841247c0.670343,-0.68088 1.247428,-1.469951 1.740876,-2.377407l1.117239,0z" id="svg_23"/>
   <path stroke="null" fill="#234a58" fill-rule="evenodd" d="m189.930846,22.577215l0,11.502939l-1.173101,0c-1.27567,-6.994597 -4.562214,-10.486963 -9.87841,-10.486963c-2.848959,0 -4.934317,1.183853 -6.247228,3.551558c-1.30329,2.367706 -1.964479,7.359454 -1.964479,14.975738c0,6.264719 0.28862,10.516724 0.84724,12.775909c0.567775,2.24932 1.545669,3.867088 2.932908,4.833737c1.396549,0.976843 2.923287,1.46025 4.599145,1.46025c2.178616,0 4.227043,-0.868323 6.144814,-2.614342c1.917772,-1.736153 3.407579,-4.538267 4.459801,-8.39549l1.284825,0l-0.43774,11.818962l-1.117239,0c-0.418654,-1.233344 -1.070532,-2.26938 -1.964323,-3.117643c-2.867425,2.525717 -5.828108,3.788329 -8.863584,3.788329c-3.854474,0 -7.373777,-1.933791 -10.557908,-5.810744c-3.184131,-3.877282 -4.766731,-8.612694 -4.766731,-14.2258c0,-5.72212 1.564135,-10.566051 4.692404,-14.551524c3.118959,-3.975772 6.74083,-5.968756 10.846373,-5.968756c3.165666,0 5.958763,1.213285 8.379292,3.620617c0.70774,-1.193718 1.247428,-2.24932 1.610841,-3.156776l1.173101,0zm18.899804,1.913731l0,16.613566l3.295855,0c1.163791,0 2.15084,-0.118385 2.960683,-0.355156c0.810153,-0.246636 1.536359,-0.897755 2.178616,-1.953357c0.651878,-1.065468 1.01467,-2.722861 1.107929,-4.972182l1.415014,0l0,16.415928l-1.415014,0c-0.14912,-3.117643 -0.716895,-5.179192 -1.703945,-6.1659c-0.995894,-0.996409 -2.504167,-1.489517 -4.543283,-1.489517l-3.295855,0l0,17.718166l7.438794,0c4.227043,0 7.141174,-0.947082 8.770326,-2.82168c1.629307,-1.88397 2.597891,-4.774544 2.904821,-8.681258l1.396549,0l-0.353637,12.972889l-32.437327,0l0,-1.469951l5.809643,0l0,-35.811547l-5.809643,0l0,-1.479816l31.09664,0l0.623792,10.348847l-1.387394,0c-0.474516,-3.13721 -1.4431,-5.406097 -2.913977,-6.787587c-1.480186,-1.390698 -3.928802,-2.081443 -7.364622,-2.081443l-7.773966,0zm38.721486,19.533571l0,16.277976l5.921367,0l0,1.469951l-18.220151,0l0,-1.469951l5.809643,0l0,-35.811547l-5.809643,0l0,-1.479816l18.843942,0c4.254663,0 7.467036,1.006275 9.61741,3.008959c2.160151,2.002849 3.230838,4.46888 3.230838,7.39908c0,3.009124 -1.079843,5.524482 -3.258459,7.557092c-2.169461,2.032116 -5.782022,3.048257 -10.837218,3.048257l-5.29773,0zm0,-19.533571l0,18.034189l3.519303,0c1.834289,0 3.370182,-0.167877 4.58068,-0.493601c1.219808,-0.325395 2.271874,-1.193718 3.15651,-2.604476c0.87486,-1.400564 1.321756,-3.58099 1.321756,-6.530757c0,-2.594775 -0.391034,-4.508506 -1.163946,-5.731985c-0.772291,-1.222986 -1.685014,-1.972924 -2.737236,-2.259021c-1.051601,-0.276397 -2.364667,-0.414348 -3.928802,-0.414348l-4.748266,0zm29.93285,35.811547l0,-35.811547l-5.763091,0l0,-1.479816l18.061875,0l0,1.479816l-5.809643,0l0,16.554373l15.790466,0l0,-16.554373l-5.697919,0l0,-1.479816l17.950151,0l0,1.479816l-5.762936,0l0,35.811547l5.762936,0l0,1.469951l-17.950151,0l0,-1.469951l5.697919,0l0,-17.777359l-15.790466,0l0,17.777359l5.809643,0l0,1.469951l-18.061875,0l0,-1.469951l5.763091,0zm52.398508,-35.811547l0,16.613566l3.295855,0c1.163791,0 2.15084,-0.118385 2.960683,-0.355156c0.810153,-0.246636 1.536359,-0.897755 2.178616,-1.953357c0.651878,-1.065468 1.01467,-2.722861 1.107929,-4.972182l1.415014,0l0,16.415928l-1.415014,0c-0.14912,-3.117643 -0.716895,-5.179192 -1.703945,-6.1659c-0.995894,-0.996409 -2.504167,-1.489517 -4.543283,-1.489517l-3.295855,0l0,17.718166l7.438794,0c4.227043,0 7.141174,-0.947082 8.770326,-2.82168c1.629307,-1.88397 2.597891,-4.774544 2.904821,-8.681258l1.396549,0l-0.353637,12.972889l-32.437327,0l0,-1.469951l5.809643,0l0,-35.811547l-5.809643,0l0,-1.479816l31.09664,0l0.623792,10.348847l-1.387394,0c-0.474516,-3.13721 -1.4431,-5.406097 -2.913977,-6.787587c-1.480186,-1.390698 -3.928802,-2.081443 -7.364622,-2.081443l-7.773966,0zm57.109378,0l-5.977229,0l0,-1.479816l13.071696,0l0,1.479816l-5.763091,0l0,23.440286c0,3.383682 -0.232603,5.889832 -0.716895,7.5076c-0.483827,1.617768 -1.359152,2.979198 -2.634822,4.074591c-1.275515,1.1046 -2.793097,1.903866 -4.57137,2.407332c-1.768651,0.493108 -3.602941,0.749445 -5.492937,0.749445c-4.003595,0 -6.926882,-0.670686 -8.779636,-1.992983c-1.862375,-1.33167 -2.99808,-2.969497 -3.42651,-4.912989c-0.427965,-1.953357 -0.642102,-4.557833 -0.642102,-7.832995l0,-23.440286l-5.28842,0l0,-1.479816l17.48479,0l0,1.479816l-5.753781,0l0,22.7696c0,3.146911 0.130655,5.613435 0.400189,7.39908c0.27931,1.795346 1.015291,3.284863 2.216012,4.478581c1.201342,1.203913 3.100649,1.795839 5.697919,1.795839c2.113599,0 4.003595,-0.453975 5.670298,-1.371296c1.675858,-0.91765 2.848959,-2.141129 3.509527,-3.690003c0.661188,-1.539009 0.99636,-4.409523 0.99636,-8.6122l0,-22.7696zm34.178203,-1.913731l0.167586,10.062749l-1.284825,0c-1.815203,-6.027948 -5.027575,-9.046773 -9.626721,-9.046773c-2.551184,0 -4.524818,0.749938 -5.930522,2.239619c-1.41548,1.489517 -2.113599,3.038391 -2.113599,4.636592c0,1.479816 0.586395,2.742428 1.759496,3.788329c1.173101,1.036036 3.314786,1.844673 6.424124,2.417033c3.109804,0.562166 5.474471,1.252911 7.104088,2.071742c1.629307,0.818996 2.997614,2.190128 4.114853,4.094158c1.117239,1.903866 1.675858,4.093993 1.675858,6.560518c0,3.798194 -1.163791,6.954971 -3.500372,9.480688c-2.336892,2.525717 -5.232558,3.788329 -8.686688,3.788329c-2.820873,0 -5.632902,-1.105094 -8.435154,-3.324653l-2.560495,2.426898l-0.958808,0l0,-10.841954l1.173101,0c1.079843,3.413113 2.578805,5.978457 4.506352,7.695043c1.926927,1.706721 4.031215,2.56485 6.330866,2.56485c2.271874,0 4.357232,-0.789071 6.256538,-2.377571c1.899306,-1.588336 2.848959,-3.600886 2.848959,-6.027784c0,-2.041982 -0.661188,-3.758568 -1.973634,-5.159625c-1.322221,-1.401057 -3.454286,-2.35784 -6.414969,-2.890574c-2.951373,-0.532734 -5.223247,-1.144227 -6.805847,-1.854538c-1.5826,-0.700611 -2.932597,-1.92409 -4.059457,-3.669944c-1.126549,-1.736646 -1.694324,-3.669944 -1.694324,-5.791178c0,-2.9302 0.98705,-5.544542 2.951373,-7.843189c1.955168,-2.308513 4.627387,-3.462605 7.988259,-3.462605c2.820873,0 5.446385,0.947082 7.885845,2.841247c0.670343,-0.68088 1.247428,-1.469951 1.740876,-2.377407l1.117239,0z" id="svg_22"/>
   <path stroke="#007e7c" fill="#003359" fill-rule="evenodd" stroke-width="2.9999" d="m361.163083,88.837457l60.834904,0l-60.834904,0z" id="svg_21"/>
   <path stroke="null" fill="#1b1918" fill-rule="evenodd" d="m233.937183,95.829752c0.097758,-0.061495 0.18481,-0.092242 0.264413,-0.092242l0.242379,0c0.051052,0 0.134224,-0.003782 0.257275,-0.011345c0.543257,-0.053931 0.86524,-0.103916 0.962843,-0.157518c0.246413,-0.142062 0.460085,-0.387219 0.637447,-0.740566c0.365896,-0.763421 0.778498,-1.848948 1.234549,-3.249512c0.22081,-0.66378 0.358603,-1.070071 0.413068,-1.212298c0.177362,-0.448878 0.347585,-0.920446 0.506792,-1.415526l0.995739,-2.954535c0.155793,-0.464169 0.528361,-1.526841 1.118636,-3.191634c0.148655,-0.41813 0.32943,-0.982105 0.539688,-1.684524l0.332999,-0.022855l0.369465,0.011674c0.303982,0.63665 0.575378,1.327395 0.80705,2.06385c0.126776,0.391494 0.337034,0.974541 0.62643,1.745525l1.611152,4.638401l0.861671,2.513221c0.452637,1.427036 0.749636,2.305718 0.890843,2.631935c0.141051,0.329999 0.271706,0.544901 0.391034,0.648324c0.036465,0.030747 0.166655,0.076457 0.398482,0.137952c0.227793,0.057713 0.391034,0.103423 0.481654,0.13417c0.325396,0.096024 0.55024,0.172974 0.676861,0.23825c0.029017,0.080074 0.043603,0.141733 0.043603,0.187772c0,0.034529 -0.010862,0.088131 -0.032586,0.1613c-0.224689,0.007399 -0.384051,0.011181 -0.478085,0.011181c-0.358448,0 -0.995894,-0.007399 -1.904582,-0.022855l-1.060912,-0.019073l-1.281877,0.011674c-0.086586,0 -0.173638,0 -0.260379,-0.007892c-0.09062,-0.003782 -0.166655,-0.007564 -0.228258,-0.007564l-0.231827,0c-0.079603,-0.007892 -0.148189,-0.030747 -0.213206,-0.069387c0,-0.107204 0.018,-0.210627 0.050586,-0.310433c0.083017,-0.046203 0.16262,-0.073169 0.231672,-0.080568l1.093498,-0.080732c0.282413,-0.015291 0.499654,-0.053602 0.647999,-0.122496c0.043448,-0.138445 0.065017,-0.23825 0.065017,-0.307144c0,-0.134334 -0.094034,-0.487188 -0.278844,-1.055273c-0.12662,-0.375709 -0.235241,-0.736455 -0.332999,-1.077964c-0.094034,-0.337562 -0.470637,-1.457948 -1.125929,-3.353099c-0.289551,-0.053602 -0.543257,-0.080568 -0.764067,-0.080568l-2.25915,0.023184l-0.666309,-0.01151c-0.238965,0 -0.503223,0.019073 -0.792619,0.05722c-0.094189,0.226576 -0.152224,0.387876 -0.181241,0.483407l-0.926843,3.107778c-0.394913,1.185661 -0.593844,1.833985 -0.593844,1.956646c0,0.069058 0.032586,0.180373 0.094189,0.337398c0.148189,0.046203 0.34743,0.088625 0.593844,0.126771l1.444497,0.134334c0.076034,0.068894 0.116069,0.130388 0.116069,0.18399c0,0.038804 -0.010862,0.096024 -0.033052,0.172974c-0.318413,0.007399 -0.560792,0.011181 -0.731016,0.011181c-0.564671,0 -1.224153,-0.030254 -1.973168,-0.091749c-0.347896,-0.015456 -0.593844,-0.023348 -0.742498,-0.023348c-0.148189,0 -0.405465,0.007892 -0.774619,0.023348c-0.239275,0.015291 -0.412913,0.022855 -0.51812,0.022855c-0.169758,0 -0.391034,-0.011345 -0.658861,-0.034529l0,-0.069058c0,-0.053602 0.013965,-0.126771 0.043448,-0.218519zm5.051006,-6.741055c0.75305,0.042421 1.614721,0.065276 2.578029,0.065276c0.55024,0 1.031894,-0.019073 1.447911,-0.053602c-0.068586,-0.291688 -0.151758,-0.560193 -0.242379,-0.809624c-0.45962,-1.285467 -0.713481,-1.995285 -0.763912,-2.129455l-0.963308,-2.558766l-0.104741,-0.199611c-0.043603,0.088131 -0.199241,0.467951 -0.467068,1.139623c-0.449223,1.154585 -0.771205,2.052669 -0.966877,2.693101c-0.094189,0.288071 -0.188224,0.575648 -0.285827,0.859444c-0.097758,0.283796 -0.159362,0.483242 -0.18481,0.598503c-0.025448,0.115097 -0.061603,0.230194 -0.112189,0.349072l0.065172,0.046039zm10.051116,-6.679396l-0.010862,-0.529445c1.093498,0 1.893565,-0.02713 2.404236,-0.08435c0.195827,-0.019073 0.332999,-0.030747 0.412603,-0.030747c0.061603,0 0.159672,0.007892 0.286448,0.022855c0.293275,0.260941 0.56824,0.564303 0.821636,0.901866c0.058034,0.065112 0.123207,0.141569 0.192258,0.222301l2.229978,2.620261l0.318879,0.406949c0.448758,0.560193 0.861671,1.043599 1.230825,1.43871c0.369465,0.399057 1.089929,1.227754 2.161392,2.486091l2.527443,2.981172c0.246258,0.291195 0.561257,0.655723 0.948722,1.09342l0.010862,-0.180373c-0.042983,-1.047381 -0.065017,-1.600174 -0.065017,-1.657394l0.043448,-0.675454l-0.021414,-1.062672l0,-0.483242c0,-0.307144 -0.022034,-1.258501 -0.061603,-2.850619c-0.007759,-0.218519 -0.029017,-0.629251 -0.072621,-1.235482c-0.039569,-0.602285 -0.061603,-1.135512 -0.061603,-1.592282c0,-0.828697 -0.047017,-1.308157 -0.141207,-1.442492c-0.065017,-0.099641 -0.369465,-0.199446 -0.919705,-0.302869c-0.12662,-0.008057 -0.32943,-0.030747 -0.604395,-0.069058c-0.322448,-0.015291 -0.51424,-0.034529 -0.572275,-0.054095c-0.058034,-0.022855 -0.115603,-0.087967 -0.173638,-0.191554c0.013965,-0.118879 0.047017,-0.230194 0.097603,-0.333616c0.191793,-0.057877 0.380482,-0.088625 0.564826,-0.088625c0.202655,0 0.449068,0.026966 0.745912,0.080568c0.296999,0.053602 0.564826,0.080732 0.800067,0.080732c0.326017,0 0.836688,-0.019073 1.531704,-0.053602c0.391034,-0.02713 0.66243,-0.03864 0.814498,-0.03864l0.181241,0l-0.021879,0.34529c-0.112189,0.054095 -0.271396,0.08435 -0.470792,0.096024c-0.195206,0.011674 -0.38343,0.042421 -0.553654,0.096024c-0.253396,0.080568 -0.409189,0.153408 -0.456206,0.21112c-0.170224,0.195336 -0.257275,0.394782 -0.257275,0.598503l0.119638,3.552381l0.086586,1.630428l-0.010862,0.472061l0.065172,2.259679c0.043448,1.542297 0.065017,2.884984 0.065017,4.024606c0,0.249431 -0.013965,0.782494 -0.043448,1.607573l-0.557378,0.046039c-0.246258,-0.299252 -1.096911,-1.246663 -2.545443,-2.838945c-0.340448,-0.368639 -0.56824,-0.625469 -0.687878,-0.775095l-0.908843,-1.116275c-0.351465,-0.414348 -0.579257,-0.675289 -0.687878,-0.790386c-0.105207,-0.111479 -0.181241,-0.195829 -0.231827,-0.245649c-0.767481,-0.93212 -1.763376,-2.094597 -2.987063,-3.495161c-0.332999,-0.371927 -0.818067,-0.95925 -1.459083,-1.757199c-0.401896,-0.502315 -0.655292,-0.809459 -0.760498,-0.920446c-0.105051,-0.115097 -0.249827,-0.241868 -0.434482,-0.384094l-0.029017,0.384094c0,1.461565 0.032896,3.479376 0.101483,6.053927l0.076189,3.729136c0.003103,0.314708 0.021569,0.617577 0.050586,0.909429l0.373034,0.091749c0.669878,0.065276 1.328739,0.168699 1.980616,0.303362c0.050586,0.04571 0.090155,0.076457 0.12662,0.099805l-0.010862,0.421748c-0.112189,0.034529 -0.20281,0.053602 -0.27543,0.053602c-0.076034,0 -0.170224,-0.007399 -0.282413,-0.019073c-0.695016,-0.04982 -1.5421,-0.072675 -2.541408,-0.072675c-0.702464,0 -1.321756,0.019073 -1.857565,0.057384l-0.144776,0.01151c-0.065017,0 -0.155638,-0.007892 -0.275275,-0.022691l-0.010862,-0.329999l0.275275,-0.130553l0.499809,-0.080568c0.445034,-0.065276 0.767481,-0.142227 0.97386,-0.222795c0.134069,-0.053602 0.242689,-0.134334 0.32943,-0.237757c0.076034,-0.521553 0.116069,-1.281356 0.116069,-2.282863c0,-0.464169 -0.010862,-1.319503 -0.032586,-2.562548l0,-1.534898l-0.021879,-3.203308c-0.013965,-1.431311 -0.057724,-2.27497 -0.137793,-2.532294c-0.043138,-0.13417 -0.130189,-0.253049 -0.263948,-0.360746c-0.271706,-0.203228 -0.622706,-0.329999 -1.057343,-0.383601c-0.434637,-0.04982 -0.716895,-0.096024 -0.843671,-0.13417l-0.00031,0zm16.358396,13.420451c0.097603,-0.061495 0.184655,-0.092242 0.264258,-0.092242l0.242379,0c0.051052,0 0.134224,-0.003782 0.257275,-0.011345c0.543257,-0.053931 0.86524,-0.103916 0.962843,-0.157518c0.246413,-0.142062 0.460085,-0.387219 0.637447,-0.740566c0.365896,-0.763421 0.778498,-1.848948 1.234704,-3.249512c0.22081,-0.66378 0.358448,-1.070071 0.412913,-1.212298c0.177362,-0.448878 0.347585,-0.920446 0.506792,-1.415526l0.995894,-2.954535c0.155638,-0.464169 0.528206,-1.526841 1.11848,-3.191634c0.148655,-0.41813 0.32943,-0.982105 0.539688,-1.684524l0.332999,-0.022855l0.369465,0.011674c0.303982,0.63665 0.575378,1.327395 0.807205,2.06385c0.12662,0.391494 0.336879,0.974541 0.626275,1.745525l1.611307,4.638401l0.861671,2.513221c0.452482,1.427036 0.749481,2.305718 0.890688,2.631935c0.141207,0.329999 0.271861,0.544901 0.391034,0.648324c0.036465,0.030747 0.166655,0.076457 0.398482,0.137952c0.227793,0.057713 0.391034,0.103423 0.481654,0.13417c0.325551,0.096024 0.55024,0.172974 0.676861,0.23825c0.029017,0.080074 0.043603,0.141733 0.043603,0.187772c0,0.034529 -0.010862,0.088131 -0.032586,0.1613c-0.224689,0.007399 -0.383896,0.011181 -0.478085,0.011181c-0.358448,0 -0.995894,-0.007399 -1.904582,-0.022855l-1.060912,-0.019073l-1.281721,0.011674c-0.086741,0 -0.173793,0 -0.260379,-0.007892c-0.09062,-0.003782 -0.16681,-0.007564 -0.228413,-0.007564l-0.231672,0c-0.079758,-0.007892 -0.148345,-0.030747 -0.213362,-0.069387c0,-0.107204 0.018,-0.210627 0.050586,-0.310433c0.083017,-0.046203 0.162776,-0.073169 0.231827,-0.080568l1.093342,-0.080732c0.282413,-0.015291 0.499809,-0.053602 0.647999,-0.122496c0.043603,-0.138445 0.065017,-0.23825 0.065017,-0.307144c0,-0.134334 -0.094034,-0.487188 -0.278844,-1.055273c-0.12662,-0.375709 -0.235241,-0.736455 -0.332999,-1.077964c-0.094034,-0.337562 -0.470637,-1.457948 -1.125929,-3.353099c-0.289396,-0.053602 -0.543257,-0.080568 -0.764067,-0.080568l-2.25915,0.023184l-0.666309,-0.01151c-0.23881,0 -0.503223,0.019073 -0.792619,0.05722c-0.094189,0.226576 -0.152224,0.387876 -0.181241,0.483407l-0.926843,3.107778c-0.394913,1.185661 -0.593844,1.833985 -0.593844,1.956646c0,0.069058 0.032586,0.180373 0.094189,0.337398c0.148189,0.046203 0.34743,0.088625 0.593844,0.126771l1.444497,0.134334c0.076034,0.068894 0.116069,0.130388 0.116069,0.18399c0,0.038804 -0.010862,0.096024 -0.032896,0.172974c-0.318568,0.007399 -0.560947,0.011181 -0.731171,0.011181c-0.564671,0 -1.223997,-0.030254 -1.973168,-0.091749c-0.347896,-0.015456 -0.593844,-0.023348 -0.742498,-0.023348c-0.148189,0 -0.405465,0.007892 -0.774464,0.023348c-0.239431,0.015291 -0.413068,0.022855 -0.518275,0.022855c-0.169758,0 -0.391034,-0.011345 -0.658861,-0.034529l0,-0.069058c0,-0.053602 0.013965,-0.126771 0.043603,-0.218519zm5.050851,-6.741055c0.75305,0.042421 1.614721,0.065276 2.578029,0.065276c0.55024,0 1.031894,-0.019073 1.447911,-0.053602c-0.068586,-0.291688 -0.151758,-0.560193 -0.242379,-0.809624c-0.45962,-1.285467 -0.713326,-1.995285 -0.763912,-2.129455l-0.963308,-2.558766l-0.104741,-0.199611c-0.043448,0.088131 -0.199241,0.467951 -0.467068,1.139623c-0.449068,1.154585 -0.77105,2.052669 -0.966877,2.693101c-0.094034,0.288071 -0.188224,0.575648 -0.285827,0.859444c-0.097758,0.283796 -0.159207,0.483242 -0.18481,0.598503c-0.025448,0.115097 -0.061603,0.230194 -0.112189,0.349072l0.065172,0.046039zm9.899048,7.155404c0.007759,-0.111479 0.036465,-0.21112 0.083483,-0.299252c0.553809,-0.157518 1.089618,-0.260941 1.611152,-0.314543c0.347585,-0.030912 0.568395,-0.111479 0.665999,-0.245649c0.072621,-0.099805 0.116069,-0.460552 0.130655,-1.08191l0.072155,-2.965551l-0.010862,-2.010741l0.010862,-2.627824l0,-0.698144c0.007759,-1.580937 0,-2.566659 -0.021569,-2.954535c-0.007759,-0.076457 -0.036,-0.17988 -0.087052,-0.314543c-0.18481,-0.091913 -0.339982,-0.149626 -0.463189,-0.17988c-0.126776,-0.030912 -0.684464,-0.138445 -1.67679,-0.326382c-0.007759,-0.08435 -0.010862,-0.145844 -0.010862,-0.18399c0,-0.046203 0.003103,-0.107698 0.010862,-0.184155c0.134224,0 0.355034,0.007399 0.662895,0.026637l1.61829,0.065112l0.941739,0.023348l0.27481,-0.011674c0.036155,0 0.141207,0.007564 0.31143,0.022855c0.420051,0 0.658861,-0.003782 0.724033,-0.011181l0.854688,-0.069387c0.575688,0 0.981308,0.011674 1.216549,0.034858c-0.007759,0.130059 -0.032431,0.272286 -0.076034,0.425529c-0.076034,0.015456 -0.445654,0.034529 -1.104515,0.061659c-0.658861,0.026966 -1.038877,0.068894 -1.136635,0.130388c-0.163086,0.096024 -0.246258,0.399057 -0.246258,0.901372c0,0.118879 -0.007759,0.360746 -0.022034,0.729056l0,0.675289l0.010862,2.083417l0,0.709325l0.022034,3.725519l-0.033052,3.176836l0.010862,0.698144c0,0.222301 0.036155,0.360746 0.105207,0.414348c0.177207,0.007892 0.698895,0.015456 1.556531,0.022855l0.720619,0l1.832427,-0.069058c0.481189,-0.011181 0.825205,-0.065112 1.02786,-0.149626c0.206844,-0.087967 0.546826,-0.337398 1.028481,-0.759639c0.289861,-0.268504 0.514085,-0.544408 0.676861,-0.828697c0.036621,-0.061001 0.094189,-0.149626 0.181241,-0.272122c0.134224,-0.192047 0.314999,-0.583212 0.539223,-1.166259l0.348051,0c-0.043603,0.268504 -0.09062,0.525335 -0.137793,0.767202c-0.206224,1.058891 -0.351465,1.94119 -0.427034,2.647391c-0.013965,0.149626 -0.029017,0.287578 -0.043603,0.414348l-3.964802,-0.122989c-3.403234,0 -5.423419,0.026966 -6.060866,0.076786c-0.199241,0.011674 -0.405465,0.015456 -0.626275,0.015456l-1.100636,0zm11.434475,-14.525545l0.507102,0c0.180775,0 0.582826,0.011674 1.201808,0.030747c0.955705,0.042421 1.752358,0.061495 2.386236,0.061495l1.234549,-0.023184c0.173793,0 0.344017,0.015291 0.506792,0.042421c0.047017,0.061495 0.072621,0.122496 0.072621,0.187772l0,0.122989l-0.267982,0.130553l-0.116069,0l-0.597257,0.011181l-0.307551,-0.011181c-0.242844,0 -0.438516,0.057384 -0.586706,0.172481c-0.115758,0.080568 -0.170224,0.168699 -0.170224,0.260941c0,0.099805 0.047017,0.222301 0.148655,0.376202c0.036,0.061001 0.090155,0.149626 0.169758,0.26834c0.141672,0.253213 0.329896,0.548683 0.561257,0.882299c0.336879,0.491299 0.687878,1.074346 1.06448,1.745525c0.148655,0.268504 0.304292,0.525828 0.467068,0.771477l1.618755,2.57044c0.104586,-0.142227 0.249827,-0.349237 0.434482,-0.625469l1.5241,-2.313281l1.759962,-2.781561c0.155172,-0.257324 0.245793,-0.448878 0.27481,-0.568085c0.013965,-0.061166 0.022034,-0.126442 0.022034,-0.195336c0,-0.157518 -0.069052,-0.288071 -0.20281,-0.383601c-0.217241,-0.1613 -0.680895,-0.276397 -1.39779,-0.353347c-0.050586,-0.007399 -0.115758,-0.019073 -0.199241,-0.034365c-0.047017,-0.091913 -0.072155,-0.168863 -0.072155,-0.230358c0,-0.046039 0.003103,-0.096024 0.010862,-0.149626l0.55024,-0.011181l1.994737,0.091913l1.604169,-0.034529c0.043603,0 0.191793,0.003782 0.445189,0.011674l-0.032586,0.391c-0.047017,0.015456 -0.12662,0.026966 -0.231827,0.034529l-0.25681,0.034529c-0.040034,0.004111 -0.108776,0.01151 -0.199241,0.019566c-0.148345,0.061001 -0.267982,0.122496 -0.351154,0.191554c-1.039343,1.158696 -1.922582,2.252116 -2.654063,3.288151c-0.727447,1.031925 -1.343325,1.971937 -1.846548,2.819872c-0.159207,0.275903 -0.293275,0.483242 -0.391034,0.617577c-0.184655,0.257159 -0.293275,0.441314 -0.32943,0.563974c-0.076034,0.287578 -0.115603,0.728892 -0.115603,1.319831c0,2.317392 0.039569,3.686715 0.119172,4.104845c0.043603,0.207339 0.097603,0.33411 0.170224,0.379819c0.188224,0.096024 0.930722,0.21112 2.230443,0.345455l0,0.13417c0,0.092242 -0.025448,0.199446 -0.076034,0.326217l-2.733667,-0.092242l-1.828548,0.103916l-1.495083,0c-0.145086,0 -0.300879,-0.004111 -0.471102,-0.011674c-0.028552,-0.092242 -0.043138,-0.157518 -0.043138,-0.199446c0,-0.042421 0.010862,-0.099805 0.032586,-0.172974c0.050586,-0.04982 0.097603,-0.080074 0.148189,-0.087967l1.37948,-0.222301c0.474516,-0.165082 0.742498,-0.276397 0.800533,-0.338056c0.083172,-0.087967 0.137172,-0.225919 0.159207,-0.410073c0.006207,-0.134663 0.010862,-1.17037 0.010862,-3.104161c0,-0.720999 -0.021569,-1.162313 -0.068586,-1.323613c-0.047017,-0.160807 -0.195362,-0.440985 -0.452637,-0.84366l-1.390342,-2.23666l-2.37134,-3.652679c-0.409499,-0.644707 -0.764067,-1.074346 -1.06448,-1.29303c-0.134069,-0.099641 -0.471102,-0.172481 -1.003188,-0.226412c-0.057724,0 -0.141207,-0.007564 -0.253396,-0.022855l-0.032741,-0.460552zm14.863313,1.765092l0.438051,-1.696034c0.029017,-0.226083 0.065017,-0.371927 0.115603,-0.433586c0.050586,-0.065112 0.105207,-0.09553 0.170224,-0.09553c0.126776,0 0.267982,0.160807 0.431068,0.483407c0.119172,0.233975 0.22081,0.383601 0.296999,0.448878c0.075569,0.061001 0.191793,0.103423 0.339982,0.126278l0.105051,-0.011181l0.456206,0.046039l2.501839,0.034529l2.954632,-0.011674l0.869119,0l1.643738,-0.030747c0.072155,0 0.159207,0.003782 0.264413,0.019073c0.481189,0.046203 0.778033,0.069058 0.890688,0.069058c0.104586,0 0.191793,-0.038311 0.253396,-0.110986c0.021414,-0.030747 0.137638,-0.276397 0.350999,-0.744347c0.094034,-0.21112 0.206224,-0.318325 0.340448,-0.318325c0.058034,0 0.130189,0.014963 0.213672,0.04571c0.036155,0.145844 0.054155,0.280178 0.054155,0.399057l-0.010862,0.448713l0.010862,0.948069c0,0.230194 -0.018,0.974048 -0.054155,2.228767c0,0.08435 -0.013965,0.157518 -0.043448,0.226576c-0.076189,0.04982 -0.144776,0.076457 -0.199396,0.076457c-0.058034,0 -0.10862,-0.026637 -0.152069,-0.08435c-0.043138,-0.053602 -0.094189,-0.226083 -0.159207,-0.514154c-0.141207,-0.667397 -0.318568,-1.147022 -0.528826,-1.434599c-0.141207,-0.184155 -0.343861,-0.318325 -0.607809,-0.398893c-0.264413,-0.080732 -0.898291,-0.123154 -1.897599,-0.123154c-0.803636,0 -1.397325,0 -1.788358,0c-0.010862,0.299252 -0.018155,0.571867 -0.018155,0.821298l0.083172,6.970756c0,0.276397 -0.013965,0.80206 -0.043603,1.573044l0.010862,1.492312l-0.010862,0.832972c0,0.260448 0.043603,0.448878 0.126776,0.559699c0.087052,0.111479 0.318879,0.222795 0.691912,0.326217c0.651412,0.172974 1.085894,0.276397 1.306704,0.314708c0.134224,0.015291 0.246413,0.04982 0.329586,0.096024l0,0.364364l-1.509669,-0.042257c-0.829084,-0.003782 -1.451945,-0.022855 -1.868582,-0.049985l-1.553117,0.073169l-1.133067,0.065276c-0.322292,0 -0.514085,-0.007892 -0.586706,-0.023348l-0.148189,-0.065112c0.013965,-0.168863 0.047017,-0.276068 0.094034,-0.325888c0.050586,-0.046203 0.180775,-0.08435 0.394603,-0.115097c0.296844,-0.046203 0.647843,-0.126771 1.053463,-0.241868c0.405465,-0.115097 0.669878,-0.233975 0.796498,-0.352854c0.072621,-0.069058 0.123207,-0.180373 0.152224,-0.337891c0.061603,-0.329506 0.094189,-0.978323 0.094189,-1.948753l0,-1.910442l-0.043603,-4.174232l-0.043448,-0.897755l-0.010862,-3.004355c-0.445654,0 -1.013894,0 -1.709376,0c-1.017308,0 -1.63629,0.065276 -1.857099,0.195829c-0.347896,0.203228 -0.862136,0.79795 -1.550014,1.784165c-0.227793,0.368145 -0.427189,0.5523 -0.600826,0.5523l-0.094189,-0.022855c-0.029017,-0.046203 -0.043448,-0.08435 -0.043448,-0.122989c0,-0.091913 0.058034,-0.360417 0.170224,-0.809624c0.14462,-0.575155 0.231672,-0.966649 0.260844,-1.169877l0.00031,0zm13.421764,12.372577c0.155638,-0.065112 0.314999,-0.103423 0.478085,-0.118714c1.086049,-0.076457 1.705341,-0.211285 1.861134,-0.410731c0.155638,-0.199446 0.235241,-1.166095 0.235241,-2.896164l-0.010862,-1.185826l0,-1.243045l-0.043448,-1.365541l0.021879,-0.802225l-0.010862,-0.878517l0,-1.039324l-0.021414,-0.464169l0.021414,-0.587323c0.007759,-0.13417 0.010862,-0.291359 0.010862,-0.471732c0,-0.475843 -0.021879,-0.978323 -0.065017,-1.503986c-0.025603,-0.103423 -0.065638,-0.207503 -0.116224,-0.303033c-0.260844,-0.145844 -0.684309,-0.241868 -1.270704,-0.287906c-0.582826,-0.049985 -0.916136,-0.103587 -0.995739,-0.165082c-0.054155,-0.04571 -0.086741,-0.160807 -0.094189,-0.34529l0.894257,0l2.816839,0.092242c0.724343,0 1.687341,-0.030747 2.892873,-0.092242c0,0.119207 -0.007759,0.230194 -0.021569,0.33411c-0.141207,0.038146 -0.376447,0.080239 -0.709447,0.126278c-0.673447,0.080732 -1.082946,0.1613 -1.231135,0.233975c-0.094189,0.03864 -0.159207,0.103916 -0.20281,0.192047c-0.068586,0.13417 -0.112189,0.387383 -0.12662,0.756022l-0.054621,1.453673l0.043603,5.014603l0,1.983611c-0.013965,0.621358 -0.021569,1.047381 -0.021569,1.273464c0,0.840207 0.021569,1.377709 0.058034,1.611684c0.039569,0.233975 0.108155,0.398893 0.206379,0.50248c0.097603,0.099641 0.25681,0.180373 0.47762,0.241868c0.32943,0.080074 0.590275,0.126278 0.775085,0.13417c0.401585,0.015456 0.655292,0.076457 0.763912,0.180373c0.021569,0.09553 0.032586,0.17988 0.032586,0.249431l0,0.087967c-0.648309,0.022855 -1.125929,0.034529 -1.433945,0.034529c-0.177207,0 -0.492206,-0.011674 -0.948722,-0.030747l-1.473514,0.019073l-2.512546,-0.011181l-0.202655,0l-0.02219,-0.318818zm19.794527,-13.400721c0.083017,0.571373 0.12662,1.162313 0.12662,1.764598c0,0.118714 -0.003103,0.280014 -0.010862,0.47946c-0.097603,0.023348 -0.173793,0.034529 -0.22081,0.034529c-0.043138,0 -0.104741,-0.007399 -0.180775,-0.022855c-0.296844,-0.871118 -0.782067,-1.542297 -1.455514,-2.010248c-0.669878,-0.472061 -1.502531,-0.706037 -2.494857,-0.706037c-0.521223,0 -0.962843,0.065276 -1.325325,0.192047c-0.636826,0.2297 -1.19467,0.5523 -1.676169,0.958756c-0.481344,0.406785 -0.886808,0.893973 -1.220273,1.457948c-0.332999,0.56381 -0.597257,1.250938 -0.78905,2.056287c-0.195827,0.80206 -0.29343,1.622865 -0.29343,2.463236c0,1.60001 0.231827,2.923788 0.691447,3.966893c0.460085,1.043599 1.089929,1.787782 1.886582,2.233042c0.800067,0.445096 1.607738,0.667397 2.422236,0.667397l0.495775,-0.011181c0.568706,-0.073169 0.952291,-0.146009 1.15898,-0.214902c0.517809,-0.153408 0.941274,-0.341673 1.277842,-0.5523c0.336879,-0.214902 0.666309,-0.514647 0.988291,-0.905647c0.322448,-0.387712 0.593844,-0.840371 0.822102,-1.35436l0.130189,-0.046203c0.036621,0 0.09062,0.023348 0.163241,0.069387c-0.007759,0.176263 -0.013965,0.291359 -0.022034,0.344962c-0.300413,1.266394 -0.517654,2.12962 -0.655292,2.593789c-0.112189,0.026472 -0.253396,0.072675 -0.42362,0.13417c-0.829084,0.299252 -1.933134,0.448878 -3.320062,0.448878c-1.11848,0 -1.955168,-0.080568 -2.508977,-0.241868c-0.55412,-0.160807 -1.158515,-0.410238 -1.813962,-0.751747c-0.655292,-0.337562 -1.227566,-0.790551 -1.723341,-1.35025c-0.496085,-0.560357 -0.894722,-1.270175 -1.198549,-2.125838c-0.304448,-0.855334 -0.456206,-1.787947 -0.456206,-2.800798c0,-0.954975 0.119172,-1.791564 0.362016,-2.505164c0.23881,-0.7136 0.611844,-1.43871 1.111498,-2.171383c0.503223,-0.732838 1.093498,-1.342851 1.777962,-1.826257c0.68043,-0.487024 1.440928,-0.832314 2.273581,-1.031925c0.586395,-0.13417 1.419359,-0.203557 2.494391,-0.203557c0.786102,0 1.524566,0.107698 2.216012,0.326217c0.691447,0.218519 1.155101,0.433422 1.390497,0.640925l-0.000155,0zm9.670634,-0.134334c0.058034,0.498698 0.083172,0.786276 0.083172,0.859444l-0.039569,1.004959c-0.013965,0.42964 -0.032586,0.706037 -0.054621,0.824915c-0.061603,0.030747 -0.115603,0.046203 -0.155638,0.046203l-0.094189,-0.023348c-0.224224,-1.058891 -0.608275,-1.829875 -1.147498,-2.313117c-0.539844,-0.483407 -1.195135,-0.725274 -1.969754,-0.725274c-0.803636,0 -1.462962,0.241868 -1.976737,0.721493c-0.51424,0.483407 -0.771516,1.043106 -0.771516,1.684031c0,0.491134 0.181241,0.93623 0.539688,1.342686c0.358603,0.406949 1.277842,1.020744 2.758804,1.837767c1.126084,0.629251 1.933599,1.139623 2.422391,1.530623c0.485068,0.395275 0.850653,0.848263 1.10048,1.366199c0.246258,0.517771 0.369465,1.09342 0.369465,1.730069c0,0.80206 -0.195672,1.553807 -0.586706,2.260008c-0.394603,0.701926 -0.923274,1.231371 -1.585703,1.588007c-0.66243,0.356965 -1.542566,0.533556 -2.639632,0.533556c-0.952291,0 -1.868117,-0.1613 -2.744218,-0.483735c-0.51424,-0.195336 -0.82924,-0.352854 -0.941429,-0.47535c-0.1125,-0.118879 -0.170224,-0.245649 -0.170224,-0.383601c0,-0.080732 0.007759,-0.184648 0.021569,-0.314708c0.094189,-0.882792 0.144776,-1.611684 0.152224,-2.17944c0.013965,-0.352689 0.039569,-0.560193 0.072621,-0.617412c0.028552,-0.053602 0.079603,-0.080732 0.155172,-0.080732c0.061603,0 0.112655,0.022855 0.152224,0.072675c0.036621,0.049985 0.061603,0.142227 0.076189,0.276397c0.079603,0.921103 0.481654,1.745525 1.209101,2.474417c0.724498,0.725274 1.542566,1.089802 2.454822,1.089802c0.561257,0 1.075498,-0.12266 1.546135,-0.371927c0.470637,-0.245649 0.840102,-0.606396 1.104515,-1.074346c0.264258,-0.467951 0.398016,-0.924721 0.398016,-1.369816c0,-0.605902 -0.198775,-1.162478 -0.600826,-1.664793c-0.402051,-0.502973 -1.209101,-1.089802 -2.422236,-1.761474c-1.213135,-0.671014 -2.002341,-1.162313 -2.367771,-1.468964c-0.597878,-0.502973 -1.042912,-1.0362 -1.339911,-1.600174c-0.22081,-0.437203 -0.32943,-0.943794 -0.32943,-1.518949c0,-1.043599 0.38762,-1.930009 1.162084,-2.655283c0.778654,-0.724781 1.817531,-1.085527 3.121286,-1.085527c0.720464,0 1.343325,0.088131 1.864548,0.261105c0.380016,0.13417 0.77105,0.356471 1.173101,0.663615z" id="svg_20"/>
   <path stroke="#007e7c" fill="#003359" fill-rule="evenodd" stroke-width="2.9999" d="m164.610332,88.679939l60.805577,0l-60.805577,0z" id="svg_19"/>
  </g>
 </g>
</svg>